<svg width="24" height="24" viewBox="0 0 24 24" fill="none" xmlns="http://www.w3.org/2000/svg">
<path d="M11.5034 18C17.1172 18 21 13.4258 21 11.9998C21 10.567 17.1101 6 11.5034 6C5.93164 6 2 10.567 2 11.9998C2 13.4258 5.9598 18 11.5034 18ZM11.5034 15.9316C9.3167 15.9316 7.59279 14.1458 7.57888 11.9998C7.57175 9.79782 9.3167 8.06874 11.5034 8.06874C13.6762 8.06874 15.4211 9.79782 15.4211 12.0002C15.4211 14.1461 13.6762 15.9319 11.5034 15.9319M11.5034 13.419C12.2814 13.419 12.9264 12.7765 12.9264 12.0002C12.9264 11.2166 12.2817 10.5745 11.5034 10.5745C10.7186 10.5745 10.0736 11.217 10.0736 12.0002C10.0736 12.7769 10.7183 13.419 11.5034 13.419Z" fill="#858585"/>
</svg>
