<svg width="25" height="25" viewBox="0 0 25 25" fill="none" xmlns="http://www.w3.org/2000/svg">
<path d="M20.3825 5.32683L19.6465 4.59089C19.4385 4.3829 19.0545 4.41491 18.8145 4.70285L16.2543 7.24682C15.1023 6.75088 13.8384 6.51088 12.5103 6.51088C8.55822 6.52681 5.13444 8.83078 3.48633 12.143C3.3903 12.351 3.3903 12.6069 3.48633 12.7829C4.25426 14.3509 5.40633 15.647 6.84633 16.6229L4.75034 18.7509C4.51034 18.9909 4.47833 19.3748 4.63838 19.5829L5.37432 20.3188C5.58231 20.5268 5.9663 20.4948 6.2063 20.2068L20.2542 6.15895C20.5582 5.91908 20.5902 5.53512 20.3822 5.32711L20.3825 5.32683ZM13.3583 10.1587C13.0863 10.0947 12.7984 10.0147 12.5264 10.0147C11.1663 10.0147 10.0784 11.1028 10.0784 12.4627C10.0784 12.7347 10.1424 13.0226 10.2224 13.2947L9.15028 14.3507C8.83032 13.7907 8.65433 13.1666 8.65433 12.4627C8.65433 10.3347 10.3664 8.62271 12.4943 8.62271C13.1984 8.62271 13.8224 8.79869 14.3823 9.11865L13.3583 10.1587Z" fill="#858585"/>
<path d="M21.5344 12.1429C20.9745 11.0229 20.2384 10.0149 19.3265 9.19891L16.3504 12.1429V12.4629C16.3504 14.5909 14.6384 16.3029 12.5104 16.3029H12.1905L10.3025 18.1909C11.0065 18.3348 11.7425 18.4309 12.4625 18.4309C16.4146 18.4309 19.8384 16.1269 21.4865 12.7987C21.6305 12.5747 21.6305 12.3508 21.5345 12.1428L21.5344 12.1429Z" fill="#858585"/>
</svg>
