<svg width="331" height="252" viewBox="0 0 331 252" fill="none" xmlns="http://www.w3.org/2000/svg">
<mask id="mask0_235_70" style="mask-type:luminance" maskUnits="userSpaceOnUse" x="0" y="0" width="331" height="252">
<path d="M0.734375 0.375H330.734V251.375H0.734375V0.375Z" fill="white"/>
</mask>
<g mask="url(#mask0_235_70)">
<path d="M238.464 233.141C244.568 233.417 250.672 233.745 256.776 233.953C273.974 234.531 291.177 234.932 308.359 235.682C312.875 235.88 317.354 237.083 321.844 237.823C321.828 238.266 321.807 238.708 321.786 239.151C304.026 239.682 286.25 239.901 268.51 240.839C250.802 241.766 233.135 243.411 215.141 244.766C216.432 245.615 217.573 246.365 218.708 247.115C218.698 247.417 218.688 247.714 218.677 248.016C217.083 248.375 215.49 248.964 213.875 249.036C211.922 249.12 209.885 249.031 208 248.557C202.151 247.094 196.958 250.646 191.271 250.516C186.583 250.401 181.88 251.177 177.198 251.026C147.177 250.057 117.161 249.031 87.151 247.849C75.6198 247.391 64.4635 244.927 53.375 241.578C48.6927 240.161 43.1823 241.427 38.0521 241.583C27.1146 241.917 16.1771 242.333 5.23958 242.693C4.47917 242.719 3.58333 242.766 2.98958 242.406C2.14062 241.891 1.51042 241.016 0.78125 240.297C1.44792 239.646 2.01042 238.755 2.80729 238.401C3.76562 237.964 4.93229 237.964 6.01042 237.802C26.5469 234.625 47.25 234.026 67.9688 233.714C69.0625 233.698 70.1562 233.615 71.2448 233.526C71.3854 233.51 71.5156 233.26 71.9375 232.812C68.2656 231.453 65.8698 228.578 61.151 228.62C50.5729 228.719 40.9323 225.057 32.7969 218.177C32.8594 217.786 32.9167 217.401 32.974 217.016C36 217.016 39.0365 216.781 42.026 217.083C45.0417 217.385 47.9948 218.219 51.1562 218.854C47.7135 214.609 44.4688 210.432 40.9792 206.464C40.2448 205.63 38.6146 205.568 37.3958 205.172C31.8906 203.385 26.3177 201.786 20.9115 199.745C18.0781 198.672 15.4115 196.948 14.3802 193.099C21.349 190.188 27.2031 195.089 33.6198 195.771C32.6719 190.474 27.1875 189.047 24.2292 184.828C25.8281 184.917 26.8646 184.979 28.0938 185.042C27.7969 182.521 26.9688 181.448 24.0208 181.312C16.5833 180.964 10.026 177.833 4.41667 173.036C3.21875 172.016 3.04167 169.797 2.39583 168.13C4.18229 167.583 6.07813 166.37 7.73438 166.641C10.9323 167.156 14.0052 168.505 17.125 169.516C18.9844 170.115 20.8385 170.729 22.974 171.422C21.8958 160.865 13.2917 154.948 8.66146 146.807C8.9375 146.479 9.21875 146.151 9.5 145.828C12.125 147.49 14.7552 149.156 17.8073 151.089C16.9271 149.292 16.2031 147.818 15.2865 145.932C16.3646 146.177 17.0312 146.328 17.8906 146.516C18.3021 142.964 18.7344 139.734 14.3854 137.953C12.9427 137.365 12.1198 135.26 10.4167 133.089C13.7135 132.474 16.099 132.031 18.8958 131.516C19.8594 127.891 21.0521 123.828 21.9427 119.703C22.0938 118.974 21.099 117.854 20.4219 117.109C17.1979 113.536 13.7292 110.167 10.7031 106.443C9.38542 104.828 8.92708 102.51 8.49479 100.214C16.1458 100.453 20.0573 106.62 25.8125 109.906C24.0469 104.375 22.3177 98.9375 20.5885 93.5C21.0625 93.276 21.5469 93.0573 22.0208 92.8385C24.3802 96.5365 26.7292 100.224 29.1979 104.089C30.8021 102.229 32.5313 100.219 34.276 98.1979C33.9896 97.8698 33.7344 97.6458 33.5729 97.375C32.6198 95.8073 30.6198 93.901 30.9792 92.7135C31.7396 90.1979 34.3906 90.776 36.6302 91.0833C39.8438 91.526 43.2448 93.5938 46.5312 89.901C44.1719 85.4583 41.7083 80.8229 39.2448 76.1771C39.4323 75.9375 39.6198 75.7031 39.8021 75.4635C41.0208 76.1615 42.4792 76.6354 43.4115 77.6094C45.8125 80.1406 48.2552 82.724 50.1667 85.6198C51.7135 87.9792 53.151 88.5521 55.7031 86.8021C53.1094 81.7396 49.3802 76.901 50.125 70.3698C55.6823 72.4635 58.7708 77.0156 62.099 81.3021C62.2448 80.9896 62.3958 80.6823 62.5417 80.3698C64.5313 81.099 66.8229 81.4323 68.4219 82.6719C70.3073 84.125 72.1042 84.724 74.4062 84.6198C77.4583 84.4844 80.526 84.5885 83.8021 84.5885C83.4271 80.875 80.526 77.349 82.7344 73.1042C88.9167 75.9844 91.4115 82.2344 95.7344 86.6354C96.7552 83.401 97.7552 80.2396 98.8958 76.6354C103.12 79.6667 104.453 83.5208 104.802 87.1354C105.354 92.849 109.078 94.9844 113.422 97.0365C114.281 94.3021 115.141 91.5833 116.255 88.0677C119.677 91.9844 121.104 95.6927 121.349 99.75C121.51 102.401 122.458 104.214 124.557 105.807C127.417 107.969 130.026 110.453 132.776 112.828C133.5 111.432 134.125 110.214 134.896 108.714C141.849 114.068 139.109 123.969 145.448 129.115C146.812 126.365 146.615 122.307 145.312 119.75C142.849 114.922 140.568 110.005 138.219 105.125C138.526 104.938 138.844 104.755 139.156 104.573C141.469 107.521 143.786 110.479 146.526 113.979C147.047 110.172 147.625 107.208 145.818 104.026C142.12 97.5313 138.911 90.776 138.865 83.0469C138.854 81.3698 139.318 79.6927 139.615 77.6406C144.583 79.1458 146.156 83.5365 149.089 86.401C149.427 86.3021 149.76 86.2031 150.099 86.1042C149.672 84.2031 149.49 82.1979 148.766 80.4167C147.458 77.1771 145.719 74.1198 144.365 70.8958C143.245 68.224 143.568 65.5677 145.182 62.9479C149.359 63.7812 150.797 67.2552 152.682 70.2448C153.01 70.151 153.339 70.0521 153.667 69.9583C153.354 68.5573 152.974 67.1615 152.755 65.7396C152.505 64.1042 152.396 62.4479 152.146 60.0208C153.964 61.0417 154.958 61.6042 156.026 62.1979C157.292 59.4167 158.661 56.6771 159.75 53.8281C160.073 52.9896 159.74 51.8073 159.474 50.849C158.448 47.1719 157.255 43.5313 156.281 39.8385C156 38.776 156.24 37.5677 156.24 35.7656C160.573 38.4479 161.719 42.6042 163.854 46.1094C166.26 43.5729 167.641 41.1875 166.969 37.3385C166.208 33.0156 166.37 28.3906 167 24.0208C167.312 21.8698 169.583 20.0104 170.969 18.0156C172.396 19.724 174.13 21.2656 175.161 23.1875C176.281 25.2552 176.74 27.6823 177.484 29.9531C180.562 28.849 181.505 26.6458 181.833 23.6146C182.469 17.7969 184.141 12.3073 188.99 7.98438C192.562 11.7604 192.068 16.4635 192.885 21.1562C195.292 20.3073 197.406 19.5573 199.583 18.7812C199.667 17.2708 199.396 15.7187 199.906 14.4896C200.604 12.8073 201.896 11.375 202.927 9.83333C204.344 11.0156 205.906 12.0625 207.115 13.4167C207.854 14.25 208.052 15.5677 208.542 16.7812C211.234 16.4219 213.812 16.0677 216.74 15.6719C216.146 10.1667 216.578 4.93229 220.776 0.359375C221.104 5.25521 221.427 10.1562 221.766 15.2812C226.099 15.6615 230.047 15.8385 232.839 11.0156C234.771 7.6875 237.844 4.97917 240.667 2.26562C241.516 1.44792 243.651 0.901041 244.464 1.41146C245.333 1.95833 245.901 4.02083 245.615 5.1875C244.708 8.95833 243.344 12.6198 242.073 16.5833C244.167 17.0417 246.458 17.5417 248.599 18.0104C250.38 14.7396 251.917 11.6094 253.766 8.67708C254.365 7.73438 255.802 7.32292 256.859 6.66667C257.365 7.78646 258.297 8.90104 258.292 10.0156C258.276 13.4792 257.896 16.9427 257.63 20.8594C259.849 22.474 262.594 23.4844 266.109 20.4792C266.38 26.6615 271.401 27.6198 274.781 30.1615C277.339 23.9896 279.854 17.9271 282.37 11.8594C282.859 11.974 283.349 12.0885 283.833 12.2083C283.833 14.0313 284.094 15.901 283.781 17.6771C282.99 22.1979 282.083 26.7135 280.938 31.1562C280.354 33.4323 280.344 35.1875 282.557 36.5C283.203 36.8802 283.823 37.4219 284.26 38.0312C286.193 40.6979 288.292 40.8333 291.266 39.4219C293.156 38.526 295.646 38.8958 297.87 38.6979C297.24 40.9167 296.74 43.1771 295.943 45.3333C295.583 46.2969 294.63 47.0469 293.776 48.099C294.99 49.7448 296.182 51.3698 297.516 53.1771C299.245 50.9219 300.786 48.9167 302.328 46.9062C302.703 47.099 303.073 47.2917 303.448 47.4844C302.641 50 301.755 52.4948 301.047 55.0417C300.75 56.1042 300.385 57.474 300.797 58.3646C302.333 61.7344 304.177 64.9688 305.953 68.3542C308.818 66.6042 311.474 64.6302 314.427 63.276C317.25 61.9844 320.37 61.3438 323.557 60.3594C321.771 67.5885 317.641 72.5781 311.714 76.099C309.854 77.2083 309.469 78.2812 310.214 80.3073C311.344 83.375 312.099 86.5833 313.083 89.9479C315.318 89.2292 317.427 88.4323 319.599 87.8802C321.177 87.4844 322.839 87.1979 324.453 87.2448C327.818 87.3385 329.089 89.3854 326.906 91.9167C324.401 94.8177 321.229 97.2812 317.964 99.3333C316.057 100.536 314.865 101.333 315.453 103.755C315.911 105.651 316.016 107.635 316.312 109.896C320.453 106.932 323.401 102.531 329.266 101.13C328.807 102.745 328.786 103.901 328.219 104.651C325.271 108.562 322.516 112.703 319.031 116.083C317.01 118.047 316.161 119.656 316.865 122.349C320.797 121.526 324.766 120.693 328.911 119.828C328.365 126.458 324.667 129.411 316.281 130.38C315.495 135.573 314.698 140.818 313.896 146.078C319.349 144.052 324.693 142.068 330.036 140.083C330.255 140.5 330.484 140.911 330.703 141.328C328.693 142.901 326.714 144.51 324.667 146.026C323.615 146.802 322.51 147.703 321.292 148.031C312.75 150.359 309.562 156.911 308.068 164.781C311.198 166.125 311.943 167.474 310.031 170.641C308.682 172.885 306.693 175.432 304.411 176.281C300.297 177.802 298.635 180.964 296.745 184.307C298.667 184.141 300.505 183.719 302.292 183.875C305.323 184.141 306.057 185.875 304.276 188.375C303.536 189.417 302.531 190.453 301.411 191.01C297.224 193.115 292.932 195.005 288.698 197.01C287.635 197.51 286.427 197.943 285.635 198.75C281.344 203.125 277.167 207.609 272.49 212.542C278.406 212.542 284.24 212.542 290.073 212.542C290.172 212.979 290.276 213.417 290.375 213.859C288.573 214.953 286.755 216.016 284.969 217.141C276.646 222.401 267.255 224.542 257.792 226.479C257.161 226.604 256.318 226.792 255.859 226.505C252.078 224.125 249.307 226.766 246.292 228.276C243.672 229.594 241.026 230.854 238.391 232.135C238.411 232.479 238.438 232.807 238.464 233.141ZM199.286 101.38C198.49 103.557 197.714 104.734 197.677 105.927C197.427 113.87 199.526 121.302 203.224 128.26C204.234 130.167 206.13 131.443 208.474 130.443C210.766 129.469 211.359 127.286 210.677 125.188C208.74 119.172 206.714 113.161 204.297 107.328C203.453 105.292 201.365 103.781 199.286 101.38ZM185.359 166.302C178.682 172.979 178.37 181.229 178.911 189.562C178.99 190.812 181.245 191.932 182.495 193.115C183.729 191.776 185.828 190.568 186.047 189.078C187.146 181.604 188.943 174.016 185.359 166.302ZM274.547 79.3958C269.807 81.9323 264.594 91.5365 265.411 96.6615C265.635 98.0312 266.854 99.8229 268.057 100.297C269.297 100.781 271.359 100.328 272.568 99.5312C276.484 96.9427 279.859 84.25 274.547 79.3958ZM227.849 72.625C223.995 78.4635 224.568 84.474 225.932 90.5052C226.74 94.0938 228.792 95.75 231.443 95.401C234.13 95.0469 235.776 92.526 235.453 88.8854C234.906 82.7344 233 77.1562 227.849 72.625ZM170.427 64.3906C170.083 62.3438 169.953 59.6771 169.109 57.2656C168.641 55.9375 167.016 54.2135 165.839 54.151C164.677 54.0938 162.922 55.6615 162.297 56.9427C160.036 61.5365 160.172 66.5365 161.37 71.3229C161.724 72.7344 164.021 74.4583 165.521 74.5521C166.792 74.6302 168.76 72.8125 169.396 71.3802C170.234 69.4844 170.078 67.1406 170.427 64.3906ZM164.526 105.948C164.156 106.406 163.771 106.698 163.641 107.073C161.245 113.99 162.042 120.844 164.521 127.5C164.938 128.62 167.271 129.969 168.286 129.682C169.557 129.328 171.229 127.401 171.26 126.13C171.396 119.245 169.411 112.839 165.823 106.948C165.568 106.531 165.01 106.312 164.526 105.948ZM117.88 148.057C117.453 148.104 117.021 148.151 116.599 148.193C116.083 149.464 115.286 150.703 115.104 152.021C114.375 157.208 113.75 162.411 113.292 167.625C113.104 169.766 113.568 171.969 116.292 172.297C119.01 172.615 120.589 170.792 120.734 168.49C121.005 164.182 121.016 159.807 120.531 155.531C120.234 152.974 118.797 150.547 117.88 148.057ZM218.672 209.979C218.292 209.635 217.917 209.292 217.536 208.953C215.776 209.438 213.875 209.635 212.281 210.448C208.589 212.339 204.995 214.453 201.443 216.615C199.562 217.76 197.453 219.229 198.641 221.828C199.885 224.547 202.656 224.193 204.677 223.234C208.104 221.615 211.604 219.776 214.391 217.276C216.391 215.484 217.286 212.458 218.672 209.979ZM191.781 209.703C190.849 209.703 190.26 209.562 189.781 209.729C183.823 211.76 177.828 213.714 171.984 216.036C171.083 216.396 170.089 219.083 170.536 219.724C171.37 220.911 173.391 222.234 174.62 221.995C177.891 221.365 181.115 220.151 184.161 218.75C187.844 217.052 190.552 214.271 191.781 209.703ZM262.865 190.464C262.495 190.229 262.12 189.995 261.75 189.755C259.906 190.823 257.833 191.635 256.266 193.021C253.411 195.547 250.849 198.401 248.193 201.141C246.672 202.698 245.307 204.484 247.042 206.573C248.781 208.677 251.323 208.339 252.87 206.714C256.062 203.375 258.979 199.724 261.609 195.922C262.599 194.5 262.479 192.307 262.865 190.464ZM115.583 220.75C121.115 224.307 135.688 221.745 138.964 216.974C139.516 216.167 139.745 214.318 139.245 213.797C138.526 213.047 136.844 212.547 135.844 212.849C130.198 214.531 124.609 216.427 119.047 218.391C117.901 218.792 116.964 219.786 115.583 220.75ZM99.6719 194.625C102.76 199.193 115.792 201.068 119.182 197.734C120.062 196.865 120.635 194.849 120.24 193.755C119.844 192.651 118.083 191.349 116.906 191.339C113.109 191.286 109.271 191.562 105.526 192.167C103.536 192.495 101.693 193.745 99.6719 194.625ZM225.229 155.542C224.974 154.859 224.833 153.099 223.995 152.656C223.234 152.255 221.396 152.964 220.594 153.75C217.88 156.411 215.385 159.292 212.88 162.151C211.495 163.734 210.719 165.573 212.344 167.448C213.974 169.318 216.089 169.302 217.979 168.031C222.172 165.214 224.693 161.276 225.229 155.542ZM200.938 55.6927C201.073 55.7292 201.203 55.7604 201.333 55.7969C201.448 57.3177 201.458 58.8594 201.714 60.3594C202.229 63.375 204.302 65.3802 206.38 64.7656C209.146 63.9479 209.438 61.7708 209.115 59.2604C208.505 54.5208 208.094 49.7604 207.396 45.0365C207.276 44.2135 206.25 43.2448 205.417 42.9427C205.01 42.7917 203.682 43.8958 203.49 44.6198C202.51 48.276 201.766 51.9948 200.938 55.6927ZM30.1042 146.5C28.9531 150.573 32.5781 160.609 35.9323 162.63C38.4115 164.12 41.026 162.562 41.151 159.516C41.3542 154.677 35.0208 147.224 30.1042 146.5ZM56.0312 136.906C55.7917 137.193 55.5521 137.484 55.3177 137.776C57.2969 143.37 61.2188 147.411 66.1562 150.604C66.9635 151.12 68.0521 151.807 68.8333 151.635C70.3698 151.286 72.3542 150.729 73.0417 149.583C73.526 148.786 72.4948 146.552 71.5312 145.542C70.3802 144.344 68.5833 143.745 67.0625 142.911C63.3854 140.906 59.7083 138.911 56.0312 136.906ZM255.062 136.234C254.266 137.724 253.688 139.224 252.755 140.458C250.224 143.802 249.693 147.719 249.812 151.641C249.849 152.979 251.406 155.115 252.573 155.349C253.76 155.589 256.057 154.245 256.589 153.036C258.172 149.417 258.891 145.536 257.078 141.625C256.318 139.979 255.797 138.229 255.062 136.234ZM84.0521 169.484C85.1042 172.286 85.6719 174.922 87.0469 177.036C87.776 178.151 90.1302 179.141 91.3125 178.776C92.5208 178.401 94.0781 176.167 93.9062 174.969C93.5208 172.271 92.4948 169.516 91.0677 167.188C90.3385 165.99 87.8177 164.719 86.7969 165.146C85.5208 165.682 84.9531 167.922 84.0521 169.484ZM80.5 218.88C84.7969 223.422 91.8698 225.26 96.0938 223.182C97.375 222.552 98.6615 220.656 98.724 219.276C98.7708 218.396 96.5208 216.516 95.4323 216.609C90.7031 217.021 86.0208 217.984 80.5 218.88ZM289.745 107.828C290.609 109.083 291.245 111.042 292.359 111.359C293.542 111.703 295.938 110.901 296.458 109.901C297.833 107.271 298.792 104.318 299.245 101.385C299.427 100.203 298.125 98.1771 296.969 97.6198C296.208 97.25 293.995 98.5208 293.344 99.6042C291.917 101.984 291.062 104.708 289.745 107.828ZM142.266 174.729C138.651 177.438 137.156 181.214 136.078 185.042C135.703 186.37 136.807 188.104 137.234 189.656C138.818 189.036 141.026 188.875 141.849 187.724C144.63 183.828 145.078 179.51 142.266 174.729ZM61.8021 181.969C61.599 182.385 61.3906 182.802 61.1823 183.214C63.0885 187.036 65.224 190.667 69.3542 192.599C71.3333 193.526 73.625 193.74 74.401 191.505C74.849 190.224 74.0156 187.479 72.9219 186.859C69.4271 184.859 65.5365 183.547 61.8021 181.969ZM110.245 124.984C108.26 121.719 106.833 118.797 104.859 116.297C103.365 114.406 101.359 115.021 101.307 117.417C101.245 120.505 101.755 123.703 102.651 126.656C102.964 127.682 105.328 128.885 106.464 128.641C107.75 128.37 108.714 126.568 110.245 124.984ZM161.349 149.547C159.339 154.25 161.12 164.698 164.182 167.49C164.802 168.047 165.995 168.359 166.797 168.193C167.344 168.083 168.177 166.802 168.031 166.26C166.526 160.63 165.234 154.875 161.349 149.547ZM194.865 29.6979C194.474 29.6302 194.083 29.5573 193.698 29.4948C192.984 30.7865 192.005 32 191.594 33.3802C190.354 37.5677 189.208 41.7917 188.312 46.0573C188.115 47.0312 189.062 48.2448 189.49 49.349C190.469 48.5365 192.042 47.8958 192.323 46.8958C193.469 42.8021 194.323 38.6146 195.057 34.4271C195.318 32.901 194.943 31.276 194.865 29.6979ZM220.75 26.6667C217.88 31.2344 217.167 36.1615 217.896 41.2865C218.01 42.0729 219.354 43.3385 219.948 43.2448C220.88 43.099 222.255 42.0833 222.401 41.2552C223.292 36.3125 223.005 31.4063 220.75 26.6667ZM246.661 107.62C243.276 109.927 238.531 120.49 239.234 123.005C239.432 123.714 240.276 124.708 240.849 124.724C241.667 124.76 242.943 124.219 243.266 123.552C244.208 121.609 245.01 119.531 245.427 117.411C246.016 114.438 246.208 111.38 246.661 107.62ZM278.391 50.026C275.245 52.0625 273.24 58.2031 274.63 61.5208C275.573 63.7708 278.057 64.1771 279.562 62.3281C281.63 59.7969 280.922 52.4479 278.391 50.026ZM166.635 186.479C164.141 191.693 164.328 196.422 165.146 201.141C165.281 201.922 167.24 203.182 167.672 202.953C168.724 202.391 170.016 201.109 170.062 200.057C170.281 195.562 169.422 191.208 166.635 186.479ZM44.7552 103.182C46.3958 106.776 47.4792 110.021 49.3229 112.74C50.0208 113.781 52.8021 114.391 54.0677 113.859C56.1042 113.005 55.6354 110.771 54.7188 109C52.8438 105.359 49.5625 103.901 44.7552 103.182ZM237.932 32.276C234.917 34.5885 233.484 37.7188 234.552 41.0833C234.953 42.3438 236.583 43.9948 237.714 44.0417C238.859 44.0885 240.604 42.6146 241.161 41.3802C242.505 38.4375 240.938 34.625 237.932 32.276ZM130.302 133.495C129.776 133.63 129.25 133.766 128.724 133.906C129.49 138.672 130.172 143.453 131.12 148.182C131.266 148.911 132.672 149.385 133.495 149.979C134.109 149.078 135.292 148.161 135.26 147.276C135.099 142.156 133.354 137.552 130.302 133.495ZM31.5625 117.229C29.3854 121.328 30.1979 130.422 32.6875 133.255C33.2188 133.854 34.3333 133.932 35.1823 134.25C35.4635 133.391 36.125 132.464 35.974 131.682C35.3125 128.245 34.5052 124.839 33.5729 121.464C33.2188 120.161 32.4115 118.974 31.5625 117.229ZM45.7135 177.068C44.8385 181.443 48.099 189.312 51.1146 191.464C51.8854 192.016 53.224 191.771 54.3021 191.896C54.2292 190.927 54.4427 189.807 54.0156 189.031C52.7083 186.641 51.2292 184.333 49.6771 182.089C48.4688 180.333 47.0417 178.729 45.7135 177.068ZM88.0938 115.214C86.6042 111.583 85.276 108.182 83.7812 104.854C83.5573 104.344 82.5938 104.161 81.974 103.828C81.6146 104.521 80.8646 105.276 80.9583 105.901C81.4583 109.229 81.9948 112.578 82.9115 115.807C83.2188 116.911 84.6615 117.693 85.5885 118.62C86.3333 117.609 87.0729 116.604 88.0938 115.214ZM72.7969 88.5104C72.7656 91.901 78.1198 99.4896 80.5833 100.01C81.3021 100.161 82.4531 99.8906 82.8646 99.375C83.2969 98.8333 83.4531 97.5417 83.0938 96.9844C80.6719 93.1823 77.4583 90.2656 72.7969 88.5104ZM162.604 77.849C160.641 82.5417 160.479 87.3594 161.339 92.2083C161.464 92.9062 162.521 93.6042 163.297 93.9323C163.568 94.0521 164.708 93.1094 164.776 92.5677C165.411 87.5104 165.583 82.4792 162.604 77.849ZM271.646 155.63C267.625 159.365 265.396 163.943 262.995 168.37C262.797 168.74 263.219 169.901 263.568 170.016C264.297 170.25 265.328 170.297 265.969 169.943C268.932 168.302 272.385 159.865 271.646 155.63ZM191.495 134.88C188.844 138.344 186.448 141.307 184.297 144.427C183.833 145.104 183.849 146.812 184.354 147.276C184.917 147.797 186.443 147.781 187.276 147.401C191.021 145.688 193.177 139.766 191.495 134.88ZM216.062 92.0469C214.281 96.151 214.005 100.286 214.719 104.479C214.833 105.135 216.036 105.938 216.812 106.036C217.401 106.115 218.38 105.307 218.729 104.646C220.234 101.807 218.75 94.6042 216.062 92.0469ZM91.8177 130.891C91.4115 131.125 91.0052 131.359 90.5938 131.594C91.9844 134.604 93.3021 137.651 94.7917 140.615C95.5781 142.161 96.4427 143.786 97.6771 144.938C98.4375 145.646 99.9635 145.536 101.151 145.786C101.078 144.62 101.375 143.245 100.859 142.323C99.9635 140.729 98.5417 139.443 97.3802 137.99C95.5104 135.646 93.6719 133.26 91.8177 130.891ZM293.901 144.781C293.833 144.781 293.771 144.776 293.708 144.776C293.708 143.365 293.839 141.938 293.646 140.552C293.562 139.974 292.865 139.271 292.292 139.057C291.953 138.927 290.927 139.573 290.844 139.99C290.224 143.161 289.625 146.349 289.344 149.562C289.286 150.276 290.531 151.099 291.182 151.87C291.99 151.13 293.224 150.521 293.5 149.615C293.953 148.104 293.797 146.401 293.901 144.781ZM70.6354 208.443C65.7917 205.536 61.6354 202.557 56.0156 201.958C58.5156 207.495 66.125 211.068 70.6354 208.443ZM63.6146 215.885C63.5 216.25 63.3906 216.62 63.2812 216.99C66.3073 220.078 69.901 222.135 74.3854 222.198C75.224 222.208 76.1875 221.286 76.8438 220.568C76.9896 220.406 76.1979 218.823 75.6302 218.677C71.6562 217.63 67.625 216.792 63.6146 215.885ZM290.099 165.406C287.521 167.578 285.24 169.271 283.286 171.286C282.698 171.896 283.031 173.406 282.943 174.5C284.062 174.568 285.344 175.031 286.255 174.641C288.943 173.484 290.698 169.583 290.099 165.406ZM237.724 177.432C235.026 179.844 232.891 181.49 231.135 183.474C230.5 184.193 230.776 185.719 230.641 186.875C231.823 186.844 233.37 187.286 234.13 186.708C236.729 184.719 238.25 182.042 237.724 177.432ZM273.979 110.5C271.312 112.979 270.318 115.703 270.521 118.823C270.568 119.536 271.578 120.656 272.24 120.729C272.948 120.807 274.182 120.047 274.479 119.354C275.688 116.568 275.625 113.734 273.979 110.5ZM57.3698 123.802C57.0573 124.068 56.75 124.333 56.4375 124.604C56.3333 127.224 59.0156 132.036 61.151 132.792C61.7656 133.01 62.8073 132.964 63.1979 132.578C63.5885 132.198 63.7396 130.958 63.4219 130.573C61.4948 128.24 59.401 126.047 57.3698 123.802ZM115.198 105.807C114.724 106.047 114.255 106.292 113.781 106.531C114.49 108.964 115.042 111.448 116.005 113.771C116.26 114.396 117.75 114.521 118.682 114.87C118.953 114 119.714 112.865 119.411 112.302C118.182 110.047 116.63 107.958 115.198 105.807ZM58.3073 160.417C57.9688 160.661 57.625 160.901 57.2865 161.146C58.526 163.375 59.6302 165.693 61.0833 167.766C61.526 168.401 62.9219 168.37 63.8802 168.641C63.8333 167.583 64.2083 166.167 63.6667 165.536C62.0781 163.667 60.1198 162.104 58.3073 160.417ZM190.87 72.625C190.422 72.6094 189.979 72.5938 189.531 72.5833C189.057 74.8333 188.417 77.0729 188.234 79.349C188.182 79.9896 189.469 80.7344 190.146 81.4323C190.734 80.7708 191.844 80.0833 191.812 79.4479C191.703 77.1667 191.214 74.901 190.87 72.625ZM256.094 55.4688C255.818 55.4427 255.547 55.4167 255.271 55.3906C254.901 56.9792 254.307 58.5573 254.266 60.1458C254.255 60.7813 255.37 61.7656 256.146 61.9948C256.771 62.1771 257.958 61.651 258.333 61.0677C258.656 60.5781 258.328 59.4948 258.021 58.7969C257.49 57.6354 256.74 56.5729 256.094 55.4688Z" fill="#14AB4B"/>
</g>
<path d="M199.286 101.38C201.365 103.781 203.453 105.292 204.297 107.323C206.713 113.162 208.74 119.167 210.677 125.182C211.359 127.281 210.766 129.464 208.474 130.438C206.13 131.438 204.234 130.162 203.224 128.255C199.526 121.297 197.432 113.87 197.677 105.922C197.713 104.735 198.49 103.557 199.286 101.38Z" fill="white"/>
<path d="M185.359 166.302C188.943 174.016 187.146 181.604 186.041 189.083C185.828 190.568 183.724 191.781 182.489 193.12C181.239 191.943 178.984 190.823 178.906 189.563C178.375 181.229 178.687 172.979 185.359 166.302Z" fill="white"/>
<path d="M274.547 79.396C279.859 84.2554 276.484 96.9429 272.568 99.5314C271.359 100.328 269.297 100.787 268.057 100.297C266.849 99.8231 265.63 98.0314 265.411 96.6616C264.594 91.5366 269.807 81.9272 274.547 79.396Z" fill="white"/>
<path d="M227.849 72.625C233 77.1563 234.906 82.7292 235.453 88.8854C235.776 92.526 234.13 95.0469 231.443 95.401C228.792 95.75 226.74 94.0938 225.932 90.5052C224.573 84.474 223.995 78.4687 227.849 72.625Z" fill="white"/>
<path d="M170.427 64.3905C170.078 67.1353 170.235 69.4791 169.391 71.3801C168.755 72.8124 166.787 74.6301 165.516 74.552C164.016 74.4582 161.719 72.7343 161.365 71.3228C160.167 66.5311 160.031 61.5364 162.292 56.9426C162.922 55.6666 164.677 54.0936 165.833 54.1509C167.016 54.2134 168.641 55.9374 169.104 57.2655C169.958 59.677 170.083 62.3489 170.427 64.3905Z" fill="white"/>
<path d="M164.526 105.948C165.011 106.313 165.568 106.531 165.818 106.948C169.406 112.839 171.391 119.245 171.255 126.13C171.229 127.401 169.552 129.328 168.287 129.682C167.266 129.964 164.938 128.62 164.516 127.5C162.037 120.844 161.24 113.99 163.636 107.073C163.771 106.698 164.156 106.406 164.526 105.948Z" fill="white"/>
<path d="M117.88 148.057C118.797 150.542 120.235 152.974 120.531 155.526C121.016 159.802 121 164.177 120.735 168.484C120.589 170.787 119.005 172.615 116.287 172.292C113.563 171.969 113.099 169.76 113.287 167.62C113.745 162.406 114.375 157.203 115.099 152.016C115.281 150.698 116.078 149.464 116.594 148.188C117.021 148.151 117.453 148.104 117.88 148.057Z" fill="white"/>
<path d="M218.672 209.979C217.287 212.453 216.391 215.484 214.396 217.276C211.604 219.776 208.109 221.609 204.682 223.234C202.662 224.193 199.891 224.547 198.646 221.828C197.458 219.229 199.568 217.766 201.448 216.615C205 214.458 208.589 212.339 212.287 210.448C213.875 209.635 215.781 209.432 217.542 208.953C217.917 209.297 218.292 209.635 218.672 209.979Z" fill="white"/>
<path d="M191.781 209.703C190.552 214.276 187.844 217.052 184.161 218.75C181.114 220.151 177.89 221.365 174.62 221.995C173.385 222.234 171.37 220.912 170.536 219.724C170.094 219.083 171.083 216.396 171.984 216.037C177.828 213.714 183.823 211.761 189.781 209.729C190.255 209.557 190.844 209.703 191.781 209.703Z" fill="white"/>
<path d="M262.865 190.464C262.479 192.307 262.599 194.5 261.609 195.927C258.974 199.729 256.057 203.375 252.865 206.719C251.318 208.344 248.776 208.682 247.036 206.578C245.307 204.49 246.672 202.703 248.187 201.141C250.844 198.406 253.411 195.552 256.26 193.026C257.828 191.641 259.901 190.828 261.745 189.76C262.12 189.99 262.495 190.229 262.865 190.464Z" fill="white"/>
<path d="M115.583 220.75C116.958 219.786 117.901 218.792 119.047 218.385C124.61 216.427 130.198 214.526 135.844 212.844C136.844 212.547 138.531 213.042 139.245 213.792C139.745 214.318 139.516 216.161 138.964 216.969C135.688 221.745 121.12 224.307 115.583 220.75Z" fill="white"/>
<path d="M99.6719 194.625C101.688 193.745 103.536 192.495 105.526 192.172C109.276 191.568 113.115 191.292 116.906 191.344C118.089 191.354 119.849 192.656 120.245 193.761C120.635 194.854 120.068 196.87 119.188 197.74C115.797 201.068 102.76 199.193 99.6719 194.625Z" fill="white"/>
<path d="M225.229 155.542C224.693 161.276 222.177 165.214 217.979 168.031C216.088 169.297 213.979 169.318 212.344 167.448C210.713 165.573 211.495 163.734 212.88 162.151C215.385 159.286 217.88 156.411 220.594 153.75C221.396 152.964 223.239 152.255 223.995 152.656C224.833 153.099 224.969 154.859 225.229 155.542Z" fill="white"/>
<path d="M200.938 55.6927C201.766 51.9948 202.51 48.2761 203.49 44.6198C203.682 43.8958 205.01 42.7917 205.417 42.9427C206.25 43.2448 207.276 44.2136 207.396 45.0365C208.094 49.7604 208.505 54.5208 209.115 59.2604C209.432 61.7708 209.141 63.9479 206.38 64.7656C204.307 65.3802 202.229 63.375 201.714 60.3594C201.458 58.8594 201.448 57.3229 201.333 55.7969C201.198 55.7604 201.068 55.724 200.938 55.6927Z" fill="white"/>
<path d="M30.1042 146.5C35.026 147.224 41.3542 154.682 41.151 159.521C41.026 162.568 38.4114 164.12 35.9323 162.63C32.5781 160.609 28.9479 150.573 30.1042 146.5Z" fill="white"/>
<path d="M56.0312 136.906C59.7083 138.906 63.3854 140.906 67.0573 142.911C68.5833 143.745 70.3802 144.344 71.526 145.542C72.4896 146.552 73.5208 148.786 73.0365 149.583C72.349 150.724 70.3646 151.281 68.8281 151.635C68.0521 151.813 66.9583 151.125 66.151 150.604C61.2135 147.411 57.2917 143.37 55.3125 137.776C55.5521 137.484 55.7917 137.198 56.0312 136.906Z" fill="white"/>
<path d="M255.062 136.234C255.797 138.229 256.318 139.979 257.078 141.62C258.891 145.531 258.172 149.411 256.588 153.036C256.057 154.245 253.76 155.583 252.573 155.344C251.406 155.109 249.849 152.979 249.812 151.635C249.693 147.719 250.229 143.797 252.755 140.453C253.687 139.224 254.26 137.724 255.062 136.234Z" fill="white"/>
<path d="M84.0522 169.484C84.9533 167.917 85.521 165.677 86.797 165.146C87.8179 164.719 90.3387 165.984 91.0679 167.187C92.495 169.521 93.521 172.271 93.9064 174.969C94.0783 176.167 92.5158 178.401 91.3127 178.776C90.1304 179.141 87.7762 178.151 87.047 177.036C85.672 174.922 85.0991 172.286 84.0522 169.484Z" fill="white"/>
<path d="M80.5 218.88C86.026 217.984 90.7031 217.016 95.4323 216.609C96.5208 216.516 98.7708 218.396 98.724 219.276C98.6615 220.656 97.375 222.552 96.0938 223.182C91.8698 225.26 84.7917 223.427 80.5 218.88Z" fill="white"/>
<path d="M289.745 107.828C291.062 104.708 291.917 101.984 293.344 99.6042C293.995 98.5209 296.208 97.2553 296.969 97.6199C298.125 98.1772 299.427 100.203 299.245 101.385C298.797 104.313 297.833 107.271 296.458 109.901C295.937 110.901 293.542 111.703 292.359 111.359C291.245 111.042 290.604 109.083 289.745 107.828Z" fill="white"/>
<path d="M142.266 174.729C145.073 179.51 144.63 183.828 141.849 187.724C141.021 188.88 138.813 189.042 137.229 189.656C136.802 188.109 135.698 186.37 136.073 185.042C137.156 181.214 138.651 177.438 142.266 174.729Z" fill="white"/>
<path d="M61.8019 181.969C65.5363 183.547 69.4217 184.859 72.9217 186.859C74.0155 187.479 74.8488 190.224 74.4009 191.505C73.6248 193.74 71.3332 193.526 69.354 192.599C65.2238 190.667 63.0884 187.036 61.1821 183.214C61.3905 182.802 61.5988 182.385 61.8019 181.969Z" fill="white"/>
<path d="M110.245 124.984C108.714 126.563 107.75 128.37 106.464 128.641C105.328 128.885 102.964 127.682 102.651 126.656C101.755 123.703 101.245 120.505 101.307 117.417C101.359 115.021 103.365 114.406 104.859 116.297C106.833 118.797 108.261 121.719 110.245 124.984Z" fill="white"/>
<path d="M161.349 149.547C165.234 154.875 166.526 160.625 168.031 166.26C168.172 166.797 167.344 168.078 166.797 168.193C165.995 168.365 164.802 168.047 164.182 167.49C161.12 164.703 159.338 154.25 161.349 149.547Z" fill="white"/>
<path d="M194.864 29.6981C194.943 31.2762 195.323 32.9064 195.057 34.422C194.323 38.6147 193.469 42.797 192.323 46.8908C192.042 47.8908 190.469 48.5366 189.489 49.3439C189.068 48.2397 188.114 47.0262 188.312 46.0522C189.208 41.7866 190.349 37.5627 191.594 33.3804C192.005 31.995 192.984 30.7814 193.698 29.4897C194.083 29.5575 194.474 29.6252 194.864 29.6981Z" fill="white"/>
<path d="M220.75 26.6667C223 31.4063 223.286 36.3126 222.401 41.2553C222.255 42.0834 220.88 43.099 219.948 43.2449C219.354 43.3386 218.005 42.073 217.896 41.2865C217.172 36.1615 217.885 31.2345 220.75 26.6667Z" fill="white"/>
<path d="M246.662 107.62C246.209 111.38 246.016 114.432 245.427 117.417C245.011 119.531 244.209 121.609 243.266 123.557C242.943 124.219 241.667 124.766 240.849 124.729C240.271 124.708 239.427 123.719 239.235 123.01C238.526 120.49 243.271 109.927 246.662 107.62Z" fill="white"/>
<path d="M278.391 50.0261C280.927 52.448 281.63 59.797 279.568 62.3282C278.063 64.1772 275.573 63.7709 274.63 61.5209C273.24 58.2032 275.245 52.0626 278.391 50.0261Z" fill="white"/>
<path d="M166.636 186.479C169.417 191.208 170.276 195.557 170.068 200.057C170.016 201.104 168.724 202.385 167.677 202.953C167.245 203.182 165.281 201.922 165.151 201.141C164.328 196.427 164.141 191.698 166.636 186.479Z" fill="white"/>
<path d="M44.7554 103.182C49.5575 103.901 52.8439 105.354 54.7189 109C55.6356 110.771 56.0991 113.005 54.0679 113.859C52.8022 114.391 50.0262 113.781 49.3231 112.74C47.4793 110.021 46.396 106.781 44.7554 103.182Z" fill="white"/>
<path d="M237.932 32.2761C240.932 34.6251 242.505 38.4376 241.167 41.3803C240.609 42.6147 238.865 44.0886 237.719 44.0417C236.588 43.9949 234.958 42.349 234.557 41.0834C233.49 37.724 234.917 34.5886 237.932 32.2761Z" fill="white"/>
<path d="M130.302 133.495C133.354 137.547 135.104 142.156 135.261 147.281C135.292 148.167 134.115 149.083 133.495 149.984C132.672 149.391 131.266 148.912 131.12 148.188C130.172 143.458 129.49 138.677 128.724 133.906C129.245 133.766 129.776 133.63 130.302 133.495Z" fill="white"/>
<path d="M31.5623 117.229C32.4112 118.974 33.2185 120.156 33.5727 121.469C34.4998 124.844 35.3123 128.25 35.9737 131.688C36.1248 132.464 35.4685 133.396 35.1821 134.255C34.3331 133.938 33.2185 133.859 32.6873 133.26C30.1977 130.422 29.3852 121.333 31.5623 117.229Z" fill="white"/>
<path d="M45.7134 177.068C47.0415 178.735 48.4686 180.333 49.6769 182.083C51.229 184.328 52.7082 186.636 54.0155 189.026C54.4425 189.802 54.2238 190.927 54.3019 191.891C53.2238 191.766 51.8853 192.011 51.1144 191.458C48.0988 189.313 44.8384 181.443 45.7134 177.068Z" fill="white"/>
<path d="M88.0938 115.214C87.073 116.61 86.3334 117.615 85.5938 118.625C84.6667 117.698 83.224 116.912 82.9167 115.813C82.0001 112.583 81.4636 109.235 80.9636 105.906C80.8699 105.281 81.6199 104.526 81.974 103.833C82.599 104.167 83.5574 104.344 83.7865 104.86C85.2761 108.177 86.6042 111.578 88.0938 115.214Z" fill="white"/>
<path d="M72.797 88.5105C77.4585 90.2657 80.6668 93.1824 83.0939 96.9845C83.4533 97.5417 83.297 98.8334 82.8647 99.3699C82.4533 99.8803 81.3022 100.156 80.5835 100.005C78.1199 99.4845 72.7658 91.8959 72.797 88.5105Z" fill="white"/>
<path d="M162.604 77.8491C165.583 82.4793 165.416 87.5106 164.776 92.5679C164.708 93.1095 163.568 94.0522 163.297 93.9325C162.521 93.6043 161.463 92.9064 161.338 92.2085C160.479 87.3595 160.64 82.547 162.604 77.8491Z" fill="white"/>
<path d="M271.646 155.63C272.385 159.865 268.932 168.297 265.969 169.943C265.328 170.297 264.297 170.25 263.568 170.016C263.214 169.901 262.792 168.74 262.995 168.37C265.396 163.943 267.625 159.365 271.646 155.63Z" fill="white"/>
<path d="M191.495 134.88C193.177 139.766 191.021 145.693 187.276 147.401C186.443 147.781 184.917 147.797 184.354 147.276C183.849 146.813 183.834 145.104 184.297 144.427C186.443 141.302 188.839 138.344 191.495 134.88Z" fill="white"/>
<path d="M216.062 92.0469C218.75 94.6042 220.229 101.807 218.729 104.651C218.38 105.307 217.401 106.115 216.812 106.042C216.036 105.943 214.833 105.135 214.719 104.484C214.01 100.286 214.281 96.151 216.062 92.0469Z" fill="white"/>
<path d="M91.8177 130.891C93.6719 133.26 95.5104 135.641 97.3802 137.99C98.5365 139.443 99.9635 140.729 100.859 142.323C101.38 143.245 101.083 144.62 101.151 145.786C99.9635 145.536 98.4375 145.646 97.6771 144.938C96.4427 143.786 95.5729 142.161 94.7917 140.615C93.3021 137.651 91.9844 134.604 90.5938 131.594C91.0052 131.359 91.4115 131.125 91.8177 130.891Z" fill="white"/>
<path d="M293.901 144.781C293.797 146.401 293.953 148.104 293.495 149.615C293.219 150.516 291.984 151.125 291.177 151.87C290.531 151.099 289.281 150.276 289.338 149.563C289.62 146.354 290.219 143.161 290.838 139.99C290.922 139.573 291.948 138.927 292.286 139.057C292.864 139.271 293.562 139.969 293.64 140.552C293.833 141.932 293.703 143.365 293.703 144.776C293.771 144.776 293.833 144.776 293.901 144.781Z" fill="white"/>
<path d="M70.6354 208.443C66.125 211.068 58.5104 207.495 56.0156 201.958C61.6354 202.557 65.7917 205.537 70.6354 208.443Z" fill="white"/>
<path d="M63.6146 215.885C67.625 216.792 71.6563 217.63 75.6302 218.677C76.1979 218.823 76.9896 220.406 76.8438 220.568C76.1875 221.287 75.224 222.208 74.3854 222.198C69.901 222.135 66.3073 220.078 63.2812 216.99C63.3906 216.62 63.5 216.25 63.6146 215.885Z" fill="white"/>
<path d="M290.099 165.406C290.698 169.583 288.943 173.484 286.26 174.635C285.349 175.026 284.062 174.562 282.948 174.495C283.036 173.401 282.703 171.896 283.292 171.281C285.234 169.276 287.515 167.578 290.099 165.406Z" fill="white"/>
<path d="M237.724 177.432C238.25 182.042 236.729 184.719 234.13 186.708C233.375 187.287 231.828 186.844 230.646 186.875C230.781 185.719 230.5 184.193 231.141 183.474C232.891 181.49 235.031 179.844 237.724 177.432Z" fill="white"/>
<path d="M273.979 110.5C275.625 113.734 275.687 116.568 274.479 119.354C274.182 120.052 272.953 120.807 272.239 120.729C271.578 120.651 270.568 119.536 270.521 118.823C270.318 115.708 271.312 112.979 273.979 110.5Z" fill="white"/>
<path d="M57.3698 123.802C59.4063 126.042 61.4948 128.24 63.4219 130.573C63.7396 130.958 63.5886 132.198 63.1979 132.578C62.8073 132.964 61.7656 133.011 61.1511 132.792C59.0156 132.037 56.3333 127.224 56.4375 124.604C56.75 124.339 57.0573 124.068 57.3698 123.802Z" fill="white"/>
<path d="M115.198 105.807C116.63 107.958 118.182 110.047 119.406 112.307C119.708 112.865 118.948 114 118.677 114.875C117.75 114.521 116.26 114.401 116 113.776C115.036 111.453 114.484 108.964 113.776 106.537C114.255 106.292 114.724 106.047 115.198 105.807Z" fill="white"/>
<path d="M58.3071 160.417C60.1196 162.099 62.078 163.667 63.6717 165.537C64.2134 166.172 63.8332 167.589 63.8853 168.641C62.9269 168.37 61.5311 168.396 61.0884 167.766C59.6353 165.693 58.5311 163.375 57.2915 161.146C57.6248 160.901 57.9686 160.662 58.3071 160.417Z" fill="white"/>
<path d="M190.87 72.6252C191.214 74.896 191.703 77.1616 191.813 79.4481C191.844 80.0887 190.734 80.7762 190.146 81.4325C189.469 80.7345 188.182 79.9897 188.234 79.3491C188.422 77.0731 189.063 74.8335 189.531 72.5835C189.979 72.5991 190.422 72.6147 190.87 72.6252Z" fill="white"/>
<path d="M256.094 55.4689C256.745 56.5731 257.49 57.6356 258.021 58.8022C258.333 59.5002 258.656 60.5783 258.333 61.0731C257.958 61.6512 256.771 62.1772 256.146 62.0002C255.37 61.771 254.255 60.7866 254.266 60.1512C254.307 58.5575 254.901 56.9845 255.271 55.396C255.547 55.4168 255.818 55.4429 256.094 55.4689Z" fill="white"/>
</svg>
