<svg width="598" height="325" viewBox="0 0 598 325" fill="none" xmlns="http://www.w3.org/2000/svg">
<g clip-path="url(#clip0_221_2256)">
<path d="M113.788 115.925C115.938 111.565 117.368 109.515 118.088 109.775C118.218 109.775 118.318 109.875 118.378 110.065C118.638 111.435 117.698 114.135 115.548 118.175C113.468 122.215 111.938 124.225 110.958 124.225C110.238 124.225 111.088 121.685 113.498 116.605C113.628 116.415 113.728 116.185 113.788 115.925ZM131.168 84.385C131.818 83.145 132.468 82.205 133.118 81.555C133.838 80.835 134.388 80.615 134.778 80.875C135.238 81.135 135.328 81.685 135.068 82.535C134.878 83.315 134.388 84.225 133.598 85.265C131.648 87.935 130.408 89.045 129.888 88.585C129.428 88.195 129.858 86.795 131.158 84.385H131.168ZM165.268 5.215C171.798 4.835 170.548 24.505 170.248 31.585C169.528 48.445 168.348 75.755 171.098 100.065C172.788 115.015 169.798 130.425 172.798 145.175C173.078 146.565 174.178 151.595 171.518 154.345C169.438 156.495 165.928 156.395 164.778 156.295C161.588 156.035 159.178 155.025 157.548 153.265C156.438 152.025 155.758 149.745 155.498 146.425C155.038 141.805 154.908 125.555 155.108 97.695C155.298 75.945 155.268 61.595 155.008 54.625C154.818 47.595 154.288 43.495 153.448 42.325C152.608 41.265 151.718 40.675 150.778 40.565C150.778 40.565 149.768 40.445 148.668 41.055C140.538 45.565 133.648 63.125 133.648 63.125C133.208 64.255 128.588 73.465 119.348 91.895C107.308 115.915 107.958 113.365 106.478 116.745C105.468 119.055 104.108 121.195 102.868 123.385C102.018 124.885 101.208 125.985 100.428 126.705C99.6476 127.425 98.9976 127.715 98.4776 127.585C97.9576 127.385 97.3076 126.835 96.5276 125.925C95.0276 124.165 90.9276 116.685 84.2276 103.465C77.5876 90.245 72.7376 81.195 69.6776 76.315L58.9376 59.425C56.2376 56.365 53.2376 53.205 49.9176 50.025C48.3276 48.505 46.7576 47.065 45.1976 45.705C44.9076 45.445 44.4876 45.145 44.1276 45.265C42.6476 45.745 43.8776 52.755 44.4776 58.545C44.6876 60.595 44.6776 66.775 44.6376 79.135C44.6176 85.855 44.5276 93.745 44.2876 102.585C43.9976 120.135 43.6976 137.675 43.4076 155.225L38.1376 154.245C28.6276 152.555 23.5176 150.435 22.8076 147.895C22.2876 146.265 21.6976 132.275 21.0476 105.905C20.3976 79.535 20.1076 58.055 20.1676 41.455C20.1676 32.735 20.2376 26.705 20.3676 23.385C20.5676 20.065 20.8276 17.685 21.1476 16.255C21.5376 14.755 22.2576 13.485 23.2976 12.445L26.2276 9.415L34.7276 15.075C47.0076 23.215 55.9176 30.945 61.8476 36.565C64.5176 39.105 65.6576 40.335 75.4676 50.185C94.8576 69.655 96.5676 71.025 99.2976 70.785C102.848 70.465 103.898 67.795 121.598 40.655C135.818 18.845 124.928 36.235 131.608 26.115C138.108 16.275 140.938 13.505 145.568 9.705C146.998 8.535 150.348 7.525 155.628 6.675C160.968 5.765 164.188 5.275 165.298 5.215H165.268ZM56.8476 17.005C51.8376 12.385 49.3276 9.555 49.3276 8.505C49.3276 8.305 49.4276 8.215 49.6176 8.215C50.2676 8.215 51.6676 9.065 53.8176 10.755C55.9676 12.445 58.2076 14.535 60.5576 17.005C66.1576 22.605 68.4676 25.435 67.4876 25.505C66.5776 25.505 63.0276 22.675 56.8476 17.005ZM179.468 3.925C180.088 1.745 180.938 0.685 181.958 0.225C182.718 -0.115 183.298 0.005 185.088 0.105C186.708 0.195 188.328 0.115 189.948 0.155C190.808 0.175 191.168 0.175 196.328 0.145C198.038 0.145 204.238 0.095 205.768 0.085C205.798 5.805 205.788 10.285 205.768 13.365C205.768 15.075 205.748 16.575 205.768 18.725C205.768 18.725 205.808 23.405 206.028 28.175C206.388 36.275 207.498 44.395 208.068 53.455C208.658 62.705 208.908 76.335 208.068 85.365C207.928 86.845 207.528 90.775 207.558 96.085C207.578 100.175 207.828 99.795 207.818 103.485C207.798 108.175 207.378 110.705 207.818 115.485C207.968 117.175 208.228 119.055 209.508 120.865C209.508 120.865 210.568 122.355 212.278 123.395C217.878 126.785 228.928 123.135 240.638 122.555C243.678 122.405 245.988 122.455 254.998 121.965C258.578 121.765 261.928 121.545 265.058 121.285C268.248 120.955 270.588 120.665 272.088 120.405C273.588 120.145 274.918 119.785 276.088 119.335C277.078 118.955 277.548 118.555 278.628 117.875C282.768 115.255 283.048 115.735 284.418 114.465C286.048 112.945 286.778 111.235 287.428 109.685C287.698 109.035 288.378 107.325 288.758 104.505C289.208 101.135 288.908 98.565 288.758 97.105C288.718 96.695 288.968 99.215 288.498 84.845C288.218 76.205 288.078 71.875 287.728 64.415C287.358 56.405 287.668 41.945 290.788 13.605C292.058 10.645 293.328 7.695 294.608 4.735C297.548 3.965 300.488 3.205 303.418 2.435C304.178 2.295 305.828 2.115 307.638 2.875C310.878 4.245 311.848 7.515 311.978 7.985C312.998 29.605 314.018 51.215 315.038 72.835C316.858 93.835 318.678 114.835 320.488 135.835L318.568 141.755C317.458 143.655 315.568 146.155 312.518 147.715C309.388 149.315 306.418 149.225 305.308 149.195C292.508 148.935 279.808 151.805 267.008 152.255C246.618 152.975 250.818 153.235 238.188 153.515C210.908 154.115 210.298 152.425 203.458 153.525C202.428 153.695 198.778 154.325 194.288 153.365C192.948 153.075 189.398 152.325 187.118 150.375C182.178 146.155 183.698 136.765 184.058 134.105C187.098 111.675 185.578 87.885 184.318 67.975C182.228 35.115 181.178 18.695 179.468 13.085C179.468 13.085 178.118 8.665 179.468 3.895V3.925ZM369.658 157.235C369.588 154.435 369.728 153.165 370.048 153.425C370.118 153.495 370.178 153.655 370.248 153.915C370.708 155.675 370.738 157.655 370.348 159.875C370.088 161.175 369.888 161.075 369.758 159.585C369.688 158.995 369.658 158.215 369.658 157.245V157.235ZM409.788 134.775C405.228 125.535 403.378 121.265 404.218 121.985C405.258 123.025 407.798 127.615 411.838 135.755C415.938 143.895 417.828 148.125 417.498 148.445C417.368 148.575 416.948 148.025 416.228 146.785C415.508 145.615 414.568 143.955 413.398 141.805C412.288 139.655 411.088 137.315 409.788 134.775ZM364.088 55.485C363.828 54.315 363.798 53.695 363.988 53.625C364.318 53.625 365.288 55.125 366.918 58.115C370.238 64.035 371.408 67.295 370.438 67.885C370.178 68.015 369.788 67.915 369.268 67.595C368.358 67.075 367.408 65.675 366.438 63.395C365.458 61.115 364.678 58.475 364.098 55.485H364.088ZM428.538 18.465C428.538 13.585 428.638 11.305 428.828 11.625C428.898 11.755 428.988 12.175 429.118 12.895C429.508 16.605 429.508 20.285 429.118 23.935C428.858 25.825 428.698 25.755 428.628 23.735C428.558 22.495 428.528 20.745 428.528 18.465H428.538ZM343.428 6.775C344.538 6.315 346.648 5.925 349.778 5.605C352.908 5.285 356.128 5.115 359.448 5.115H371.358L376.928 13.905C380.578 19.765 385.878 27.155 392.848 36.075C399.818 44.995 405.148 52.575 408.868 58.825C412.908 65.725 416.288 71.225 419.028 75.325C421.758 79.425 424.988 83.885 428.698 88.705C433.128 94.365 436.578 99.445 439.048 103.935C440.938 107.385 442.788 109.925 444.618 111.555C445.548 112.385 447.418 113.155 448.718 112.625C451.988 111.305 451.018 101.115 448.618 84.695C446.478 70.035 444.318 59.095 444.028 56.665C442.008 39.995 440.708 25.905 440.118 14.375L439.728 5.975L447.438 4.995C452.188 4.405 456.068 4.665 459.058 5.775C462.118 6.885 464.138 8.735 465.108 11.345C465.958 13.685 466.738 22.285 467.448 37.125C468.168 51.965 469.138 80.225 470.378 121.895C470.448 124.145 470.868 128.565 471.358 137.425C472.218 152.985 472.018 155.635 470.288 157.935C465.328 164.515 452.268 162.335 448.318 161.545H436.498L432.298 151.585C428.258 141.945 423.998 133.095 419.508 125.025C415.078 116.955 408.698 106.535 400.368 93.775C389.168 76.655 381.648 64.605 377.808 57.645C376.388 55.075 375.308 53.175 372.828 49.535C368.008 42.475 365.978 41.485 364.428 41.625C362.858 41.765 361.668 42.995 361.308 43.675C360.198 45.755 359.098 54.515 357.988 69.945C356.948 85.375 356.198 103.405 355.738 124.045C355.278 142.465 354.698 153.435 353.978 156.955C353.328 160.215 352.088 162.095 350.268 162.615C349.418 162.875 347.888 163.005 345.678 163.005C343.658 163.005 342.068 162.815 340.888 162.425C339.778 162.035 338.738 161.185 337.768 159.885C336.858 158.585 336.138 156.885 335.618 154.805C335.098 152.785 334.508 149.895 333.858 146.115C332.298 137.325 331.868 126.815 332.588 114.575C333.368 100.445 334.318 77.885 335.418 46.895C335.748 37.845 336.138 29.835 336.588 22.875C337.108 15.845 337.568 11.975 337.958 11.255C338.348 10.475 339.068 9.655 340.108 8.815C341.218 7.905 342.318 7.215 343.428 6.765V6.775ZM67.2976 271.125C67.2976 265.985 67.7176 263.415 68.5676 263.415C69.4776 263.485 70.1276 266.505 70.5176 272.495C70.8476 277.705 70.3876 280.305 69.1476 280.305C67.9076 280.305 67.2876 277.245 67.2876 271.125H67.2976ZM82.5376 214.875C83.0576 213.445 84.1376 213.015 85.7576 213.605C86.8676 214.065 87.4176 214.485 87.4176 214.875C87.4176 215.195 86.8976 215.885 85.8576 216.925C84.5576 218.225 83.5176 218.645 82.7376 218.195C81.9576 217.675 81.8876 216.565 82.5376 214.875ZM88.5876 195.245C87.0876 194.595 87.1576 194.205 88.7876 194.075C89.4376 194.005 90.4776 193.945 91.9076 193.875C93.5976 193.815 95.1276 193.905 96.4976 194.165C97.9276 194.425 98.7476 194.715 98.9376 195.045C99.2676 195.565 98.9376 195.925 97.9576 196.115C95.6176 196.705 92.8476 196.505 89.6576 195.525C89.2676 195.455 88.9076 195.365 88.5876 195.235V195.245ZM39.5676 163.605C48.2876 161.395 56.9876 160.215 65.6376 160.085C74.2976 159.955 85.5276 160.835 99.3276 162.725C122.438 165.845 135.498 167.865 138.488 168.785C139.988 169.305 141.088 170.025 141.808 170.935C143.048 172.625 143.668 175.815 143.668 180.505C143.738 185.125 143.148 187.825 141.908 188.615C141.388 188.945 139.268 189.165 135.558 189.295C131.908 189.425 127.778 189.425 123.158 189.295C111.898 188.905 97.2176 188.675 79.1176 188.615L52.0676 188.415C50.6476 188.345 48.7476 188.495 47.1276 189.635C42.5976 192.835 43.7876 201.335 44.3776 207.675C45.3476 218.125 43.6676 228.685 44.2076 239.165C46.4176 282.265 45.4376 286.005 49.9976 289.715C52.6576 291.875 51.8676 289.695 78.7276 293.195C78.7276 293.195 95.3076 295.355 108.028 295.245C108.798 295.245 109.428 295.155 111.108 295.165C112.808 295.165 113.258 295.265 113.828 294.995C115.138 294.375 115.508 292.595 115.648 291.925C116.288 288.845 116.898 272.805 117.238 250.905C121.238 248.955 125.228 247.005 129.228 245.045H143.878C143.778 255.815 143.678 266.595 143.588 277.365C143.448 292.555 143.348 298.605 143.688 303.345C143.908 306.335 143.688 309.355 143.968 312.345C144.218 315.095 144.478 316.255 143.798 317.455C142.228 320.195 137.348 320.155 135.678 320.145C127.948 320.105 110.238 320.485 86.3576 320.925L45.6376 320.635C40.9076 320.625 37.0376 320.325 34.2076 320.015C31.7176 319.745 30.0276 319.555 27.7376 318.995C25.4276 318.435 22.1976 317.415 22.1976 317.415C22.1976 317.415 21.8976 307.365 21.6076 298.375C21.2876 288.385 21.1276 283.385 21.0176 281.385C20.6276 274.155 20.0776 267.585 19.3576 261.655C17.9876 249.415 17.2076 233.595 17.0176 214.195C16.8876 194.795 17.4776 182.685 18.7776 177.865C19.5576 175.005 20.5676 172.825 21.8076 171.325C23.1076 169.765 25.0276 168.425 27.5676 167.325C30.1676 166.215 34.1776 164.985 39.5776 163.615L39.5676 163.605ZM148.848 177.465C148.748 175.655 148.658 173.035 148.748 169.875C148.868 165.405 148.998 160.325 149.938 157.965C153.538 148.905 180.148 151.655 181.268 151.785C189.478 151.635 198.108 151.865 207.118 152.155C213.738 152.365 218.378 152.665 221.008 153.055C222.328 152.865 224.468 152.775 226.018 154.045C227.208 155.015 227.778 156.565 228.058 163.415C228.148 165.585 228.218 168.545 228.138 172.095C228.058 175.435 227.748 180.355 227.288 186.355C227.008 189.935 226.738 192.345 226.478 193.585C225.958 196.515 224.948 207.745 223.448 227.275C222.018 246.745 221.068 261.715 220.618 272.195C220.028 284.895 219.448 295.795 218.858 304.905C218.858 309.505 218.918 312.835 219.008 315.405C219.038 316.405 219.088 317.575 218.328 318.465C217.258 319.725 215.328 319.595 211.858 319.315C208.308 319.025 205.128 318.775 204.508 317.005C204.298 316.405 204.438 315.795 204.608 315.345C204.868 302.205 205.738 291.295 206.558 283.315C208.638 263.095 211.708 248.875 205.758 245.445C204.658 244.815 204.898 245.495 194.528 244.255C189.848 243.695 188.188 243.365 184.658 243.235C181.898 243.135 180.038 243.235 176.658 243.405C171.138 243.695 168.348 243.855 167.128 244.935C165.858 246.055 165.268 247.695 164.918 253.275C164.568 258.785 164.798 262.495 164.918 266.045C165.178 273.745 165.408 280.335 164.578 286.645C164.438 287.725 164.048 290.435 164.068 294.135C164.078 296.755 164.298 298.685 164.408 299.755C165.598 311.005 166.188 316.635 163.888 318.485C162.558 319.555 160.688 319.445 156.958 319.265C152.788 319.065 150.288 318.545 149.438 317.705C148.918 317.185 148.558 298.665 148.368 262.135C148.238 225.615 148.398 197.385 148.858 177.465H148.848ZM202.758 169.945C202.238 169.485 200.378 169.065 197.188 168.675C193.998 168.285 190.448 168.055 186.548 167.995C184.468 167.925 182.808 167.895 181.568 167.895C180.328 167.895 178.998 167.925 177.568 167.995C176.198 168.065 175.158 168.155 174.448 168.285C173.728 168.355 172.948 168.545 172.108 168.875C171.328 169.135 170.778 169.425 170.448 169.755C170.118 170.015 169.768 170.475 169.368 171.125C169.048 171.775 168.848 172.395 168.778 172.985C168.718 173.505 168.648 174.315 168.588 175.425C168.588 176.535 168.618 177.575 168.688 178.545C168.818 179.525 168.978 180.825 169.178 182.455C169.898 189.425 170.548 197.035 171.128 205.305L172.008 217.805L178.648 219.755C189.808 222.355 202.798 224.145 205.988 218.775C206.958 217.135 206.328 215.905 205.698 210.085C204.978 203.505 204.658 195.435 204.718 185.865C204.788 176.295 204.128 170.985 202.768 169.945H202.758ZM315.158 170.045C314.958 169.265 314.898 168.575 314.958 167.995C315.088 167.405 315.348 167.115 315.738 167.115C316.128 167.115 316.458 167.405 316.718 167.995C316.978 168.585 317.108 169.265 317.108 170.045C317.108 171.995 316.908 172.975 316.518 172.975C316.128 172.975 315.668 171.995 315.148 170.045H315.158ZM242.118 168.095C243.228 167.635 245.338 167.245 248.468 166.925C251.588 166.595 254.818 166.435 258.138 166.435H270.048L275.618 175.225C279.268 181.085 284.568 188.475 291.538 197.395C298.508 206.315 303.838 213.895 307.558 220.145C311.598 227.045 314.978 232.545 317.718 236.645C320.448 240.745 323.678 245.205 327.388 250.025C331.818 255.685 335.268 260.765 337.738 265.255C339.628 268.705 341.478 271.245 343.308 272.875C345.128 274.505 346.498 274.865 347.408 273.945C348.058 273.225 348.578 269.155 348.968 261.735C349.358 254.315 348.808 249.075 347.308 246.015C346.268 243.935 344.738 234.585 342.718 217.985C340.698 201.315 339.398 187.225 338.808 175.695L338.418 167.295L346.128 166.315C350.878 165.725 354.758 165.985 357.748 167.095C360.808 168.205 362.828 170.055 363.798 172.665C364.648 175.005 365.428 183.605 366.138 198.445C366.858 213.285 367.828 241.545 369.068 283.205C369.268 288.865 369.588 294.045 370.048 298.735C370.508 303.355 371.028 306.355 371.608 307.715C373.758 312.985 372.878 316.825 368.968 319.235C365.058 321.645 357.738 322.845 346.998 322.845H335.178L330.978 312.885C326.938 303.245 322.678 294.395 318.188 286.325C313.758 278.255 307.378 267.835 299.048 255.075C287.848 237.955 280.328 225.905 276.488 218.945C274.338 214.975 272.678 212.275 271.508 210.845C270.338 209.415 269.298 208.855 268.388 209.185C266.758 209.645 265.788 208.795 265.458 206.645C265.128 204.495 264.348 203.255 263.118 202.935C261.948 202.545 260.908 203.225 259.998 204.985C258.888 207.065 257.788 215.825 256.678 231.255C255.638 246.685 254.888 264.715 254.428 285.355C253.968 303.775 253.388 314.745 252.668 318.265C252.018 321.525 250.778 323.405 248.958 323.925C248.108 324.185 246.578 324.315 244.368 324.315C242.348 324.315 240.758 324.115 239.578 323.725C238.468 323.335 237.428 322.485 236.458 321.185C235.548 319.885 234.828 318.195 234.308 316.105C233.788 314.085 233.198 311.185 232.548 307.415C230.988 298.625 230.558 288.115 231.278 275.875C232.058 261.745 233.008 239.185 234.108 208.195C234.438 199.145 234.828 191.135 235.278 184.175C235.798 177.145 236.258 173.275 236.648 172.555C237.038 171.775 237.758 170.965 238.798 170.115C239.908 169.205 241.008 168.515 242.118 168.065V168.095ZM580.478 263.355C580.278 299.875 579.928 318.405 579.408 318.925C578.558 319.775 576.058 320.295 571.888 320.485C567.718 320.685 565.408 320.415 564.958 319.705C564.438 318.795 564.568 312.315 565.348 300.275C566.128 288.365 566.228 277.355 565.638 267.265C564.988 257.175 563.848 251.155 562.218 249.195C561.048 247.765 560.008 247.015 559.098 246.945C558.188 246.875 556.008 247.365 552.558 248.405C550.608 248.995 547.968 249.515 544.648 249.965C541.268 250.425 538.198 250.645 535.468 250.645C528.888 250.645 525.018 251.325 523.848 252.695C522.738 254.065 522.218 264.675 522.288 284.535C522.288 304.325 522.838 314.905 523.948 316.275C524.078 316.405 524.178 316.505 524.238 316.565C525.018 317.675 525.048 318.225 524.338 318.225C523.488 318.295 521.048 318.555 517.018 319.005L510.868 319.685L509.988 306.115C509.398 297.005 508.818 286.095 508.228 273.405C507.768 262.925 506.828 247.945 505.398 228.485C503.898 208.955 502.888 197.725 502.368 194.795C501.848 192.325 501.298 185.155 500.708 173.305L499.828 155.435L507.838 154.265C513.108 153.485 526.358 153.065 547.588 152.995L579.518 152.895L580.008 178.675C580.468 198.595 580.628 226.815 580.498 263.345L580.478 263.355ZM524.138 187.085C524.208 196.655 523.878 204.725 523.158 211.305C522.698 215.665 522.608 218.565 522.868 219.995C523.068 221.365 523.808 222.695 525.118 223.995C528.768 227.645 533.548 227.965 539.478 224.975C542.278 223.545 545.858 222.205 550.218 220.975L556.858 219.025L557.738 206.525C558.328 198.255 558.978 190.635 559.688 183.675C559.888 182.045 560.048 180.745 560.178 179.765C560.248 178.785 560.278 177.745 560.278 176.645C560.208 175.535 560.148 174.725 560.078 174.205C560.008 173.615 559.818 173.005 559.488 172.345C559.098 171.695 558.738 171.235 558.418 170.975C558.088 170.645 557.538 170.355 556.758 170.095C555.908 169.765 555.128 169.575 554.418 169.505C553.698 169.375 552.658 169.275 551.298 169.215C549.868 169.145 548.528 169.115 547.298 169.115C546.068 169.115 544.398 169.145 542.318 169.215C538.408 169.285 534.858 169.505 531.668 169.895C528.478 170.285 526.618 170.705 526.098 171.165C524.728 172.205 524.078 177.515 524.148 187.085H524.138ZM337.458 252.895C335.288 248.235 334.668 245.685 335.598 245.245C336.628 244.835 338.628 247.245 341.588 252.475C344.148 257.025 344.748 259.625 343.378 260.255C342.008 260.885 340.038 258.435 337.448 252.885L337.458 252.895ZM274.988 225.415C271.588 219.505 270.048 216.055 270.358 215.055C270.418 214.865 270.538 214.805 270.728 214.865C271.348 215.065 272.428 216.285 273.978 218.545C275.518 220.805 277.038 223.465 278.538 226.525C282.198 233.545 283.558 236.935 282.608 236.705C281.738 236.435 279.198 232.665 274.998 225.415H274.988ZM164.918 144.355H228.238H164.918Z" fill="#2D54A5"/>
<path d="M161.27 254.81H109.44C108.95 254.58 108.23 254.17 107.57 253.45C106.37 252.14 106.11 250.64 106.04 250.05C105.93 249.56 105.75 248.44 106.21 247.16C106.87 245.31 108.38 244.46 108.76 244.27C111.52 243.92 115.73 243.37 120.85 242.57C132.08 240.82 132.44 240.28 137.02 239.85C144.49 239.14 159.42 239.06 161.27 244.55C161.65 245.67 161.37 246.7 160.51 248.87C158.86 253.01 155.94 259.09 150.64 266.06" fill="#2D54A5"/>
<path d="M440.44 266.31C440.44 261.17 440.86 258.6 441.71 258.6C442.62 258.67 443.27 261.69 443.66 267.68C443.99 272.89 443.53 275.49 442.29 275.49C441.05 275.49 440.43 272.43 440.43 266.31H440.44Z" fill="#2D54A5"/>
<path d="M455.68 210.06C456.2 208.63 457.28 208.2 458.9 208.79C460.01 209.25 460.56 209.67 460.56 210.06C460.56 210.38 460.04 211.07 459 212.11C457.7 213.41 456.66 213.83 455.88 213.38C455.1 212.86 455.03 211.75 455.68 210.06Z" fill="#2D54A5"/>
<path d="M461.73 190.43C460.23 189.78 460.3 189.39 461.93 189.26C462.58 189.19 463.62 189.13 465.05 189.06C466.74 189 468.27 189.09 469.64 189.35C471.07 189.61 471.89 189.9 472.08 190.23C472.41 190.75 472.08 191.11 471.1 191.3C468.76 191.89 465.99 191.69 462.8 190.71C462.41 190.64 462.05 190.55 461.73 190.42V190.43Z" fill="#2D54A5"/>
<path d="M412.71 158.79C421.43 156.58 430.13 155.4 438.78 155.27C447.44 155.14 458.67 156.02 472.47 157.91C495.58 161.03 508.64 163.05 511.63 163.97C513.13 164.49 514.23 165.21 514.95 166.12C516.19 167.81 516.81 171 516.81 175.69C516.88 180.31 516.29 183.01 515.05 183.8C514.53 184.13 512.41 184.35 508.7 184.48C505.05 184.61 500.92 184.61 496.3 184.48C485.04 184.09 470.36 183.86 452.26 183.8L425.21 183.6C424.31 184.5 423.34 185.42 422.29 186.35C421.24 187.28 420.22 188.13 419.23 188.9C418.69 192.31 418.02 197.1 417.53 202.86C416.39 216.22 416.93 226 417.36 234.35C419.57 277.45 418.59 281.19 423.15 284.9C425.81 287.06 425.02 284.88 451.88 288.38C451.88 288.38 468.46 290.54 481.18 290.43C481.95 290.43 482.58 290.34 484.26 290.35C485.96 290.35 486.41 290.45 486.98 290.18C488.29 289.56 488.66 287.78 488.8 287.11C489.44 284.03 490.05 267.99 490.39 246.09C494.39 244.14 498.38 242.19 502.38 240.23H517.03C516.93 251 516.83 261.78 516.74 272.55C516.6 287.74 516.5 293.79 516.84 298.53C517.06 301.52 516.84 304.54 517.12 307.53C517.37 310.28 517.63 311.44 516.95 312.64C515.38 315.38 510.5 315.34 508.83 315.33C501.1 315.29 483.39 315.67 459.51 316.11L418.79 315.82L417.23 320.02C416.84 321 416.51 321.68 416.25 322.07C416.05 322.46 415.79 322.82 415.47 323.14C415.14 323.53 414.56 323.73 413.71 323.73C412.93 323.73 412.12 323.7 411.27 323.63C410.49 323.56 409.12 323.43 407.17 323.24C401.44 322.52 398.25 321.97 397.6 321.58C396.62 320.99 395.87 318 395.35 312.6C394.83 307.26 394.63 300.91 394.76 293.56C394.83 289.46 394.63 283.79 394.17 276.57C393.78 269.34 393.23 262.77 392.51 256.84C391.14 244.6 390.36 228.78 390.17 209.38C390.04 189.98 390.63 177.87 391.93 173.05C392.71 170.19 393.72 168.01 394.96 166.51C396.26 164.95 398.18 163.61 400.72 162.51C403.32 161.4 407.33 160.17 412.73 158.8L412.71 158.79Z" fill="#2D54A5"/>
<path d="M517.03 250.01H465.2C464.71 249.78 463.99 249.37 463.33 248.65C462.13 247.34 461.87 245.84 461.8 245.25C461.69 244.76 461.51 243.64 461.97 242.36C462.63 240.51 464.14 239.66 464.52 239.47C467.28 239.12 471.49 238.57 476.61 237.77C487.84 236.02 488.2 235.48 492.78 235.05C500.25 234.34 515.18 234.26 517.03 239.75C517.41 240.87 517.13 241.9 516.27 244.07C514.62 248.21 511.7 254.29 506.4 261.26" fill="#2D54A5"/>
</g>
<defs>
<clipPath id="clip0_221_2256">
<rect width="597.91" height="324.34" fill="white"/>
</clipPath>
</defs>
</svg>
