<svg width="18" height="18" viewBox="0 0 18 18" fill="none" xmlns="http://www.w3.org/2000/svg">
<g clip-path="url(#clip0_221_2377)">
<path d="M2.04667 5.01522C3.17702 5.01522 4.09335 4.0989 4.09335 2.96854C4.09335 1.8382 3.17702 0.921875 2.04667 0.921875C0.916326 0.921875 0 1.8382 0 2.96854C0 4.0989 0.916326 5.01522 2.04667 5.01522Z" fill="#FFB609"/>
<path d="M6.02555 6.56602V17.921H9.5511V12.3057C9.5511 10.824 9.82985 9.38908 11.667 9.38908C13.4789 9.38908 13.5013 11.0831 13.5013 12.3993V17.9219H17.0288V11.6949C17.0288 8.63608 16.3702 6.2854 12.7951 6.2854C11.0786 6.2854 9.92807 7.22735 9.45756 8.1188H9.40986V6.56602H6.02555ZM0.280273 6.56602H3.81144V17.921H0.280273V6.56602Z" fill="#FFB609"/>
</g>
<defs>
<clipPath id="clip0_221_2377">
<rect width="18" height="17" fill="white" transform="translate(0 0.921875)"/>
</clipPath>
</defs>
</svg>
