<svg width="20" height="21" viewBox="0 0 20 21" fill="none" xmlns="http://www.w3.org/2000/svg">
<path d="M14.44 3.82C13.7566 3.03953 13.3799 2.0374 13.38 1H10.29V13.4C10.2667 14.0712 9.98352 14.7071 9.50031 15.1735C9.01709 15.6399 8.3716 15.9004 7.7 15.9C6.28 15.9 5.1 14.74 5.1 13.3C5.1 11.58 6.76 10.29 8.47 10.82V7.66C5.02 7.2 2 9.88 2 13.3C2 16.63 4.76 19 7.69 19C10.83 19 13.38 16.45 13.38 13.3V7.01C14.633 7.90985 16.1374 8.39265 17.68 8.39V5.3C17.68 5.3 15.8 5.39 14.44 3.82Z" fill="#00AF49"/>
</svg>
