<svg width="1465" height="449" viewBox="0 0 1465 449" fill="none" xmlns="http://www.w3.org/2000/svg">
<g clip-path="url(#clip0_221_2271)">
<g clip-path="url(#clip1_221_2271)">
<path d="M154.31 252.101C157.016 246.092 158.857 243.247 159.844 243.566C160.021 243.559 160.161 243.69 160.251 243.945C160.668 245.788 159.522 249.491 156.801 255.065C154.174 260.637 152.196 263.432 150.869 263.479C149.893 263.513 150.925 260.032 153.949 253.036C154.116 252.772 154.241 252.456 154.31 252.101ZM176.363 208.537C177.185 206.826 178.021 205.522 178.87 204.611C179.812 203.601 180.547 203.277 181.087 203.611C181.723 203.941 181.871 204.682 181.559 205.846C181.338 206.912 180.717 208.168 179.696 209.614C177.181 213.323 175.553 214.886 174.827 214.287C174.186 213.781 174.702 211.864 176.349 208.537L176.363 208.537ZM218.813 99.6696C227.642 98.8459 226.879 125.553 226.808 135.158C226.63 158.033 226.323 195.086 231.199 227.89C234.195 248.063 230.874 269.081 235.636 288.921C236.081 290.791 237.809 297.553 234.336 301.405C231.619 304.416 226.86 304.446 225.297 304.365C220.963 304.164 217.65 302.91 215.359 300.602C213.797 298.975 212.767 295.918 212.258 291.433C211.416 285.196 210.472 263.188 209.425 225.436C208.653 195.961 207.933 176.522 207.251 167.092C206.661 157.577 205.75 152.048 204.556 150.503C203.368 149.106 202.134 148.349 200.856 148.245C200.856 148.245 199.482 148.13 198.021 149.008C187.22 155.503 178.717 179.618 178.717 179.618C178.174 181.169 172.351 193.865 160.705 219.27C145.53 252.38 146.29 248.895 144.445 253.544C143.186 256.721 141.445 259.684 139.869 262.71C138.788 264.782 137.743 266.311 136.72 267.323C135.698 268.335 134.831 268.759 134.12 268.607C133.406 268.361 132.5 267.647 131.4 266.451C129.285 264.137 123.376 254.198 113.674 236.606C104.054 219.01 97.0549 206.979 92.6786 200.513L77.3298 178.14C73.5272 174.122 69.3136 169.983 64.6654 165.832C62.4395 163.848 60.2445 161.971 58.0667 160.203C57.6616 159.864 57.0784 159.478 56.5964 159.657C54.6141 160.378 56.612 169.816 57.6988 177.632C58.0802 180.399 58.3591 188.772 58.8896 205.518C59.1804 214.623 59.4317 225.316 59.5248 237.303C59.9622 261.092 60.3856 284.868 60.823 308.657L53.6372 307.579C40.6738 305.739 33.6508 303.109 32.5688 299.702C31.7872 297.518 30.3261 278.593 28.198 242.9C26.0699 207.207 24.6609 178.121 23.9568 155.629C23.5443 143.816 23.3539 135.644 23.3729 131.14C23.4868 126.633 23.7264 123.396 24.0923 121.444C24.5497 119.393 25.465 117.639 26.8247 116.181L30.6507 111.937L42.4337 119.203C59.4548 129.649 71.8912 139.7 80.1906 147.033C83.9279 150.348 85.5304 151.96 99.2863 164.84C126.476 190.299 128.857 192.074 132.544 191.62C137.338 191.019 138.634 187.352 161.329 149.747C179.562 119.528 165.631 143.602 174.202 129.576C182.542 115.938 186.245 112.051 192.338 106.684C194.22 105.032 198.71 103.505 205.823 102.104C213.014 100.618 217.353 99.802 218.854 99.6682L218.813 99.6696ZM72.4916 120.771C65.4858 114.749 61.9516 111.034 61.9019 109.612C61.8924 109.341 62.0237 109.214 62.2811 109.205C63.1616 109.174 65.0985 110.26 68.0911 112.447C71.0837 114.635 74.2172 117.36 77.5176 120.595C85.369 127.917 88.6323 131.642 87.308 131.783C86.0752 131.826 81.132 128.16 72.4916 120.771ZM237.99 97.2502C238.726 94.2676 239.828 92.7914 241.188 92.1199C242.201 91.6234 242.993 91.7585 245.422 91.8093C247.621 91.8546 249.812 91.6696 252.009 91.6471C253.175 91.6335 253.663 91.6165 260.652 91.3317C262.968 91.2508 271.365 90.8898 273.437 90.8039C273.749 98.5515 273.947 104.621 274.066 108.795C274.146 111.111 274.19 113.144 274.319 116.056C274.319 116.056 274.595 122.394 275.118 128.846C275.989 139.802 277.877 150.75 279.078 162.997C280.315 175.5 281.298 193.953 280.588 206.226C280.468 208.238 280.112 213.581 280.404 220.773C280.624 226.313 280.945 225.786 281.106 230.786C281.301 237.14 280.852 240.588 281.674 247.043C281.957 249.325 282.398 251.86 284.218 254.251C284.218 254.251 285.724 256.219 288.09 257.547C295.837 261.875 310.634 256.408 326.471 255.068C330.582 254.721 333.714 254.679 345.897 253.589C350.737 253.149 355.265 252.692 359.493 252.192C363.799 251.594 366.955 251.091 368.975 250.667C370.995 250.244 372.78 249.694 374.343 249.029C375.667 248.467 376.284 247.903 377.715 246.93C383.2 243.185 383.602 243.822 385.398 242.037C387.534 239.901 388.442 237.549 389.249 235.419C389.584 234.526 390.425 232.177 390.806 228.339C391.256 223.752 390.728 220.284 390.456 218.314C390.383 217.76 390.84 221.162 389.524 201.717C388.736 190.025 388.341 184.166 387.514 174.076C386.634 163.242 386.37 143.638 389.256 105.098C390.836 101.028 392.417 96.9711 394.011 92.9005C397.958 91.7183 401.905 90.5496 405.838 89.3678C406.861 89.1422 409.087 88.8203 411.575 89.7643C416.03 91.467 417.498 95.8511 417.697 96.4816C420.101 125.723 422.506 154.95 424.91 184.191C428.369 212.554 431.828 240.917 435.274 269.281L432.953 277.392C431.539 280.018 429.097 283.495 425.039 285.752C420.874 288.068 416.846 288.087 415.341 288.098C397.988 288.352 380.919 292.841 363.6 294.056C336.011 295.996 341.713 296.149 324.616 297.126C287.687 299.23 286.781 296.969 277.567 298.783C276.18 299.062 271.265 300.088 265.136 299C263.307 298.67 258.463 297.822 255.282 295.288C248.39 289.805 250.005 277.012 250.366 273.392C253.424 242.861 250.239 210.704 247.59 183.791C243.204 139.374 241.005 117.179 238.423 109.66C238.423 109.66 236.385 103.736 237.988 97.2096L237.99 97.2502ZM502.899 295.96C502.671 292.17 502.801 290.443 503.247 290.78C503.345 290.871 503.434 291.085 503.541 291.434C504.247 293.797 504.382 296.478 503.958 299.503C503.668 301.277 503.392 301.151 503.145 299.139C503.023 298.343 502.945 297.287 502.899 295.973L502.899 295.96ZM556.201 263.62C549.586 251.318 546.878 245.621 548.05 246.557C549.508 247.917 553.166 254.015 559.025 264.851C564.964 275.685 567.725 281.326 567.293 281.775C567.123 281.957 566.528 281.232 565.494 279.586C564.463 278.035 563.111 275.831 561.424 272.973C559.819 270.113 558.082 267 556.201 263.62ZM490.539 158.366C490.131 156.793 490.061 155.955 490.315 155.851C490.762 155.835 492.147 157.822 494.497 161.795C499.275 169.658 501.014 174.019 499.728 174.864C499.382 175.053 498.849 174.936 498.129 174.527C496.872 173.865 495.519 172.014 494.097 168.971C492.661 165.928 491.48 162.389 490.552 158.366L490.539 158.366ZM576.1 105.178C575.869 98.5674 575.897 95.4739 576.169 95.8984C576.27 96.0712 576.412 96.636 576.622 97.6052C577.326 102.613 577.5 107.598 577.145 112.561C576.882 115.134 576.662 115.047 576.471 112.314C576.318 110.637 576.195 108.268 576.087 105.179L576.1 105.178ZM460.246 93.3546C461.728 92.6789 464.568 92.0507 468.793 91.4691C473.018 90.8875 477.372 90.5049 481.87 90.3478L498.005 89.7844L505.966 101.429C511.188 109.195 518.718 118.956 528.583 130.71C538.447 142.465 546.026 152.481 551.362 160.772C557.161 169.929 562 177.22 565.906 182.645C569.799 188.07 574.385 193.959 579.639 200.314C585.909 207.772 590.823 214.49 594.381 220.456C597.105 225.041 599.731 228.394 602.288 230.516C603.587 231.596 606.157 232.551 607.893 231.771C612.26 229.829 610.464 216.07 606.436 193.939C602.843 174.18 599.399 159.461 598.892 156.183C595.366 133.695 592.939 114.668 591.594 99.0763L590.668 87.715L601.067 86.0226C607.474 84.9986 612.743 85.1673 616.846 86.5296C621.044 87.8886 623.868 90.2993 625.305 93.7892C626.567 96.9191 628.031 108.533 629.695 128.603C631.372 148.674 634.023 186.912 637.675 243.305C637.876 246.35 638.654 252.318 639.737 264.298C641.638 285.337 641.493 288.936 639.258 292.134C632.85 301.283 615.054 298.947 609.665 298.064L593.652 298.623L587.491 285.329C581.562 272.46 575.372 260.672 568.908 249.952C562.524 239.229 553.388 225.414 541.5 208.522C525.517 185.859 514.759 169.89 509.228 160.643C507.183 157.229 505.63 154.706 502.098 149.892C495.234 140.556 492.437 139.31 490.344 139.573C488.223 139.837 486.669 141.56 486.214 142.498C484.809 145.369 483.733 157.288 482.959 178.244C482.28 199.197 482.117 223.658 482.47 251.641C482.719 276.617 482.452 291.506 481.643 296.309C480.916 300.756 479.326 303.361 476.885 304.152C475.745 304.544 473.679 304.793 470.685 304.897C467.948 304.993 465.785 304.811 464.168 304.338C462.646 303.862 461.197 302.76 459.821 301.045C458.527 299.327 457.471 297.058 456.668 294.265C455.868 291.553 454.932 287.665 453.873 282.575C451.344 270.741 450.264 256.523 450.66 239.907C451.049 220.728 451.268 190.12 451.292 148.085C451.311 135.809 451.461 124.939 451.741 115.489C452.113 105.941 452.553 100.676 453.047 99.6825C453.539 98.6074 454.475 97.4624 455.845 96.2753C457.305 94.99 458.763 94.0032 460.245 93.341L460.246 93.3546ZM224.922 288.183L310.703 285.188L224.922 288.183Z" fill="#EDEDED"/>
<path d="M731.781 233.603C731.537 226.64 731.985 223.138 733.136 223.098C734.372 223.15 735.396 227.21 736.208 235.307C736.901 242.349 736.401 245.893 734.721 245.952C733.041 246.011 732.057 241.895 731.767 233.604L731.781 233.603Z" fill="#EDEDED"/>
<path d="M749.752 156.679C750.389 154.717 751.832 154.084 754.054 154.806C755.58 155.377 756.345 155.92 756.363 156.448C756.378 156.882 755.706 157.841 754.347 159.299C752.647 161.122 751.258 161.74 750.18 161.167C749.099 160.5 748.951 158.999 749.752 156.679Z" fill="#EDEDED"/>
<path d="M757.033 129.799C754.97 128.99 755.047 128.458 757.249 128.205C758.126 128.079 759.532 127.949 761.466 127.786C763.753 127.625 765.83 127.674 767.698 127.962C769.647 128.246 770.772 128.601 771.045 129.039C771.517 129.727 771.087 130.231 769.768 130.535C766.626 131.445 762.864 131.305 758.496 130.128C757.964 130.052 757.472 129.947 757.033 129.786L757.033 129.799Z" fill="#EDEDED"/>
<path d="M689.114 89.2551C700.823 85.8486 712.553 83.8385 724.265 83.2532C735.991 82.6674 751.246 83.3282 770.031 85.2358C801.486 88.3693 819.275 90.488 823.369 91.5929C825.425 92.2264 826.95 93.1498 827.968 94.3485C829.728 96.5793 830.719 100.872 830.941 107.225C831.254 113.481 830.583 117.166 828.94 118.295C828.251 118.767 825.39 119.165 820.37 119.517C815.431 119.866 809.836 120.061 803.571 120.104C788.298 120.108 768.4 120.491 743.877 121.266L707.222 122.275C705.295 122.247 702.728 122.54 700.587 124.161C694.602 128.71 696.616 140.169 697.715 148.73C699.524 162.841 697.747 177.227 698.974 191.399C704.007 249.683 702.857 254.796 709.21 259.607C712.916 262.407 711.742 259.491 748.296 262.962C748.296 262.962 770.859 265.104 788.086 264.353C789.129 264.316 789.979 264.165 792.255 264.099C794.558 264.018 795.172 264.133 795.932 263.74C797.677 262.838 798.094 260.409 798.252 259.495C798.974 255.292 799.041 233.533 798.466 203.848C803.792 201.018 809.105 198.187 814.432 195.343L834.278 194.649C834.653 209.245 835.027 223.853 835.415 238.448C835.944 259.033 836.094 267.234 836.779 273.639C837.219 277.679 837.063 281.781 837.584 285.818C838.053 289.532 838.46 291.091 837.596 292.749C835.598 296.535 828.985 296.712 826.723 296.778C816.249 297.089 792.274 298.442 759.944 300.167L704.766 301.701C698.358 301.911 693.101 301.688 689.252 301.402C685.866 301.154 683.568 300.976 680.439 300.326C677.283 299.677 672.859 298.448 672.859 298.448C672.859 298.448 671.977 284.847 671.159 272.682C670.253 259.163 669.799 252.397 669.556 249.693C668.685 239.916 667.629 231.042 666.373 223.042C663.938 206.525 662.133 185.13 660.958 158.858C659.864 132.582 660.091 116.148 661.624 109.557C662.545 105.646 663.81 102.645 665.419 100.554C667.107 98.3789 669.644 96.4728 673.033 94.8624C676.503 93.2357 681.877 91.3796 689.128 89.2682L689.114 89.2551Z" fill="#EDEDED"/>
<path d="M837.815 102.875C837.594 100.428 837.348 96.8828 837.32 92.5976C837.271 86.5363 837.207 79.6482 838.369 76.4065C842.817 63.9624 878.997 66.429 880.52 66.5521C891.636 65.9605 903.338 65.8638 915.558 65.8305C924.536 65.8018 930.836 65.9887 934.417 66.3926C936.197 66.0728 939.091 65.8496 941.251 67.4968C942.909 68.7546 943.755 70.8274 944.458 80.0941C944.683 83.0296 944.918 87.0363 944.977 91.8493C945.027 96.3779 944.84 103.058 944.5 111.208C944.29 116.071 944.039 119.349 943.745 121.041C943.179 125.035 942.342 140.296 941.234 166.825C940.218 193.269 939.639 213.595 939.525 227.813C939.327 245.046 939.057 259.84 938.688 272.21C938.906 278.442 939.145 282.95 939.388 286.427C939.476 287.781 939.599 289.363 938.612 290.605C937.222 292.363 934.601 292.278 929.887 292.063C925.064 291.838 920.744 291.649 919.82 289.281C919.508 288.478 919.668 287.645 919.877 287.027C919.608 269.214 920.27 254.393 921.004 243.543C922.865 216.052 926.351 196.643 918.129 192.277C916.609 191.476 916.966 192.386 902.859 191.197C896.492 190.659 894.227 190.291 889.439 190.282C885.695 190.277 883.18 190.5 878.609 190.89C871.145 191.544 867.373 191.893 865.771 193.414C864.104 194.991 863.382 197.241 863.172 204.817C862.958 212.298 863.445 217.313 863.776 222.117C864.492 232.536 865.116 241.453 864.29 250.04C864.151 251.51 863.751 255.2 863.953 260.211C864.091 263.76 864.48 266.365 864.68 267.809C866.824 282.993 867.89 290.593 864.861 293.208C863.11 294.72 860.572 294.66 855.51 294.592C849.851 294.518 846.44 293.932 845.249 292.835C844.52 292.155 843.156 267.082 841.17 217.603C839.266 168.134 838.148 129.883 837.828 102.875L837.815 102.875Z" fill="#EDEDED"/>
<path d="M910.492 90.1374C909.766 89.5388 907.227 89.0578 902.887 88.6804C898.547 88.3029 893.726 88.1593 888.44 88.2625C885.619 88.2661 883.369 88.304 881.689 88.3626C880.009 88.4213 878.209 88.5248 876.275 88.6873C874.422 88.847 873.017 89.0181 872.062 89.2278C871.089 89.3567 870.042 89.651 868.919 90.1378C867.875 90.5269 867.144 90.9458 866.712 91.4085C866.277 91.7763 865.825 92.4161 865.314 93.3156C864.911 94.2113 864.669 95.0607 864.603 95.8633C864.546 96.5706 864.489 97.6712 864.461 99.1778C864.513 100.682 864.603 102.089 864.744 103.4C864.966 104.721 865.244 106.475 865.593 108.674C866.898 118.082 868.138 128.361 869.315 139.537L871.099 156.429L880.186 158.757C895.428 161.751 913.111 163.562 917.178 156.136C918.415 153.868 917.503 152.232 916.374 144.377C915.088 135.497 914.272 124.58 913.901 111.612C913.543 98.6438 912.398 91.4815 910.506 90.1369L910.492 90.1374Z" fill="#FCFCFC"/>
<path d="M1062.78 84.9549C1062.47 83.9077 1062.36 82.9758 1062.41 82.1872C1062.56 81.3818 1062.9 80.9766 1063.43 80.9581C1063.96 80.9397 1064.42 81.317 1064.8 82.1039C1065.18 82.8909 1065.39 83.806 1065.42 84.8627C1065.52 87.5044 1065.29 88.8415 1064.76 88.86C1064.23 88.8784 1063.57 87.5725 1062.77 84.9554L1062.78 84.9549Z" fill="#EDEDED"/>
<path d="M963.727 85.7691C965.209 85.0934 968.049 84.4653 972.274 83.8837C976.485 83.289 980.854 82.9195 985.351 82.7624L1001.49 82.199L1009.45 93.8435C1014.67 101.61 1022.2 111.37 1032.06 123.125C1041.93 134.879 1049.51 144.896 1054.84 153.187C1060.64 162.343 1065.48 169.635 1069.39 175.059C1073.28 180.485 1077.87 186.374 1083.12 192.728C1089.39 200.186 1094.3 206.905 1097.86 212.871C1100.59 217.455 1103.21 220.809 1105.77 222.93C1108.31 225.053 1110.18 225.475 1111.37 224.186C1112.22 223.18 1112.73 217.642 1112.91 207.571C1113.09 197.5 1112.09 190.428 1109.92 186.353C1108.41 183.585 1105.89 170.99 1102.37 148.597C1098.85 126.11 1096.42 107.083 1095.08 91.4908L1094.15 80.1296L1104.55 78.4372C1110.96 77.4132 1116.22 77.5819 1120.33 78.9442C1124.53 80.3031 1127.35 82.7138 1128.79 86.2038C1130.05 89.3336 1131.51 100.947 1133.18 121.018C1134.85 141.088 1137.5 179.327 1141.16 235.706C1141.69 243.364 1142.37 250.367 1143.22 256.699C1144.06 262.936 1144.91 266.975 1145.76 268.79C1148.92 275.828 1147.91 281.072 1142.72 284.522C1137.54 287.972 1127.68 289.944 1113.13 290.452L1097.12 291.011L1090.96 277.716C1085.03 264.848 1078.84 253.06 1072.37 242.34C1065.99 231.617 1056.86 217.802 1044.97 200.91C1028.98 178.247 1018.23 162.278 1012.69 153.031C1009.59 147.755 1007.22 144.175 1005.56 142.293C1003.91 140.411 1002.48 139.702 1001.26 140.192C999.073 140.892 997.719 139.787 997.17 136.89C996.621 133.993 995.506 132.35 993.825 131.974C992.221 131.501 990.844 132.472 989.695 134.899C988.289 137.77 987.214 149.689 986.44 170.645C985.761 191.598 985.598 216.059 985.951 244.042C986.199 269.018 985.933 283.907 985.124 288.71C984.397 293.157 982.806 295.762 980.365 296.553C979.226 296.945 977.16 297.194 974.166 297.298C971.429 297.394 969.266 297.198 967.649 296.726C966.126 296.25 964.677 295.148 963.302 293.432C962.007 291.714 960.952 289.459 960.149 286.652C959.349 283.94 958.412 280.039 957.353 274.963C954.824 263.128 953.744 248.911 954.141 232.295C954.529 213.115 954.749 182.508 954.773 140.473C954.792 128.197 954.941 117.327 955.221 107.877C955.593 98.3284 956.033 93.0639 956.528 92.07C957.019 90.9949 957.956 89.8635 959.325 88.6627C960.786 87.3774 962.243 86.3906 963.726 85.7285L963.727 85.7691Z" fill="#EDEDED"/>
<path d="M1426.62 198.8C1428.08 248.284 1428.48 273.404 1427.8 274.133C1426.69 275.324 1423.32 276.147 1417.68 276.602C1412.04 277.07 1408.9 276.814 1408.26 275.873C1407.51 274.665 1407.38 265.88 1407.87 249.532C1408.36 233.36 1407.98 218.44 1406.7 204.799C1405.34 191.16 1403.51 183.059 1401.21 180.481C1399.56 178.599 1398.11 177.632 1396.88 177.58C1395.64 177.528 1392.71 178.295 1388.09 179.867C1385.47 180.759 1381.92 181.588 1377.45 182.355C1372.89 183.138 1368.74 183.581 1365.04 183.711C1356.13 184.022 1350.92 185.126 1349.4 187.037C1347.96 188.946 1347.76 203.344 1348.79 230.246C1349.73 257.056 1350.97 271.363 1352.54 273.166C1352.72 273.336 1352.86 273.467 1352.95 273.546C1354.06 275.012 1354.12 275.756 1353.16 275.79C1352.01 275.925 1348.72 276.392 1343.28 277.193L1334.98 278.405L1333.15 260.063C1331.92 247.749 1330.62 232.996 1329.22 215.833C1328.1 201.657 1326.11 181.408 1323.26 155.112C1320.3 128.725 1318.4 113.56 1317.56 109.615C1316.74 106.293 1315.65 96.6059 1314.29 80.5803L1312.25 56.4129L1323.05 54.449C1330.15 53.143 1348.08 51.9471 1376.84 50.848L1420.09 49.2019L1421.98 84.1037C1423.54 111.068 1425.09 149.291 1426.65 198.785L1426.62 198.8Z" fill="#EDEDED"/>
<path d="M1346.69 98.14C1347.23 111.101 1347.17 122.05 1346.5 130.998C1346.09 136.926 1346.1 140.859 1346.52 142.784C1346.86 144.631 1347.92 146.398 1349.76 148.097C1354.88 152.869 1361.37 153.076 1369.26 148.745C1372.99 146.675 1377.77 144.691 1383.62 142.818L1392.52 139.862L1393.12 122.886C1393.53 111.655 1394.05 101.301 1394.68 91.8386C1394.88 89.6209 1395.03 87.8522 1395.16 86.5184C1395.21 85.1875 1395.2 83.7771 1395.15 82.2869C1395 80.7865 1394.88 79.692 1394.77 78.9909C1394.64 78.1949 1394.36 77.3775 1393.88 76.499C1393.32 75.6369 1392.81 75.0307 1392.36 74.6936C1391.9 74.2622 1391.14 73.8953 1390.07 73.58C1388.91 73.1731 1387.84 72.9526 1386.87 72.8914C1385.89 72.7493 1384.48 72.6631 1382.63 72.6461C1380.69 72.6189 1378.88 72.6417 1377.21 72.6999C1375.54 72.7581 1373.28 72.8777 1370.47 73.071C1365.18 73.3508 1360.38 73.8167 1356.07 74.496C1351.77 75.1753 1349.27 75.8322 1348.59 76.48C1346.78 77.9537 1346.15 85.1781 1346.7 98.1395L1346.69 98.14Z" fill="#FCFCFC"/>
<path d="M1096.91 196.126C1093.75 189.915 1092.79 186.49 1094.03 185.85C1095.41 185.246 1098.23 188.416 1102.49 195.361C1106.17 201.404 1107.11 204.898 1105.28 205.816C1103.45 206.735 1100.67 203.509 1096.9 196.113L1096.91 196.126Z" fill="#EDEDED"/>
<path d="M1010.97 161.867C1006.08 154.022 1003.83 149.421 1004.21 148.051C1004.28 147.791 1004.44 147.704 1004.7 147.776C1005.55 148.018 1007.07 149.62 1009.28 152.608C1011.47 155.597 1013.65 159.128 1015.83 163.203C1021.12 172.54 1023.12 177.068 1021.83 176.802C1020.63 176.477 1017.02 171.49 1010.98 161.867L1010.97 161.867Z" fill="#EDEDED"/>
<path d="M834.768 207.898L764.553 210.35C763.878 210.061 762.883 209.54 761.955 208.596C760.267 206.878 759.844 204.858 759.721 204.062C759.549 203.403 759.252 201.895 759.815 200.139C760.622 197.601 762.627 196.378 763.133 196.103C766.855 195.498 772.533 194.554 779.431 193.228C794.562 190.326 795.024 189.577 801.208 188.778C811.295 187.463 831.517 186.648 834.283 193.998C834.851 195.498 834.52 196.906 833.458 199.887C831.418 205.573 827.75 213.948 820.9 223.641" fill="#EDEDED"/>
<path d="M1213.51 210.27C1213.27 203.307 1213.72 199.805 1214.87 199.765C1216.1 199.817 1217.13 203.877 1217.94 211.974C1218.63 219.016 1218.13 222.56 1216.45 222.619C1214.77 222.678 1213.79 218.561 1213.5 210.271L1213.51 210.27Z" fill="#EDEDED"/>
<path d="M1231.48 133.346C1232.12 131.384 1233.56 130.751 1235.79 131.473C1237.31 132.044 1238.08 132.587 1238.09 133.115C1238.11 133.549 1237.44 134.508 1236.08 135.966C1234.38 137.789 1232.99 138.407 1231.91 137.834C1230.83 137.167 1230.68 135.666 1231.48 133.346Z" fill="#EDEDED"/>
<path d="M1238.75 106.467C1236.69 105.657 1236.76 105.125 1238.97 104.872C1239.84 104.747 1241.25 104.616 1243.18 104.454C1245.47 104.292 1247.55 104.342 1249.42 104.629C1251.37 104.914 1252.49 105.268 1252.76 105.706C1253.23 106.395 1252.8 106.898 1251.49 107.202C1248.34 108.112 1244.58 107.972 1240.21 106.795C1239.68 106.719 1239.19 106.614 1238.75 106.453L1238.75 106.467Z" fill="#EDEDED"/>
<path d="M1170.85 65.922C1182.55 62.5155 1194.28 60.5053 1206 59.92C1217.72 59.3342 1232.98 59.9951 1251.76 61.9027C1283.22 65.0361 1301.01 67.1548 1305.1 68.2597C1307.16 68.8932 1308.68 69.8166 1309.7 71.0154C1311.46 73.2462 1312.45 77.5384 1312.67 83.8921C1312.99 90.1476 1312.31 93.8333 1310.67 94.9622C1309.98 95.4339 1307.12 95.8322 1302.1 96.1838C1297.16 96.5326 1291.57 96.728 1285.3 96.7705C1270.03 96.7748 1250.13 97.1577 1225.61 97.9327L1188.95 98.9414C1187.78 100.203 1186.51 101.496 1185.13 102.805C1183.75 104.115 1182.41 105.314 1181.1 106.404C1180.53 111.05 1179.85 117.57 1179.46 125.397C1178.55 143.55 1179.74 156.774 1180.72 168.065C1185.75 226.35 1184.6 231.463 1190.95 236.273C1194.66 239.073 1193.49 236.157 1230.04 239.628C1230.04 239.628 1252.6 241.77 1269.83 241.019C1270.87 240.983 1271.72 240.831 1274 240.765C1276.3 240.685 1276.92 240.799 1277.68 240.406C1279.42 239.504 1279.84 237.075 1280 236.161C1280.72 231.958 1280.79 210.2 1280.21 180.515C1285.54 177.684 1290.85 174.853 1296.18 172.009L1316.02 171.316C1316.4 185.911 1316.77 200.52 1317.16 215.114C1317.69 235.699 1317.84 243.9 1318.52 250.306C1318.96 254.346 1318.81 258.447 1319.33 262.485C1319.8 266.199 1320.2 267.758 1319.34 269.416C1317.34 273.202 1310.73 273.378 1308.47 273.444C1297.99 273.755 1274.02 275.108 1241.69 276.834L1186.51 278.367L1184.6 284.131C1184.11 285.477 1183.7 286.414 1183.37 286.955C1183.11 287.492 1182.78 287.992 1182.36 288.441C1181.93 288.985 1181.15 289.283 1180 289.324C1178.95 289.361 1177.85 289.358 1176.69 289.304C1175.63 289.246 1173.77 289.134 1171.12 288.969C1163.32 288.265 1158.98 287.671 1158.08 287.173C1156.72 286.42 1155.56 282.405 1154.6 275.114C1153.65 267.904 1153.08 259.311 1152.9 249.348C1152.8 243.79 1152.27 236.118 1151.3 226.359C1150.43 216.583 1149.37 207.708 1148.12 199.709C1145.68 183.192 1143.88 161.797 1142.7 135.524C1141.61 109.248 1141.84 92.8148 1143.37 86.2235C1144.29 82.312 1145.55 79.311 1147.16 77.2202C1148.85 75.0453 1151.39 73.1392 1154.78 71.5288C1158.25 69.902 1163.62 68.046 1170.87 65.9346L1170.85 65.922Z" fill="#EDEDED"/>
<path d="M1316.5 184.565L1246.28 187.017C1245.61 186.728 1244.61 186.207 1243.69 185.263C1242 183.545 1241.58 181.525 1241.45 180.729C1241.28 180.07 1240.98 178.562 1241.55 176.806C1242.35 174.268 1244.36 173.045 1244.86 172.77C1248.59 172.165 1254.26 171.221 1261.16 169.895C1276.29 166.993 1276.76 166.244 1282.94 165.445C1293.03 164.13 1313.25 163.315 1316.01 170.665C1316.58 172.165 1316.25 173.573 1315.19 176.554C1313.15 182.24 1309.48 190.615 1302.63 200.308" fill="#EDEDED"/>
</g>
</g>
<defs>
<clipPath id="clip0_221_2271">
<rect width="1451.27" height="398.043" fill="white" transform="translate(0 50.6486) rotate(-2)"/>
</clipPath>
<clipPath id="clip1_221_2271">
<rect width="1451.27" height="295.728" fill="white" transform="translate(-29 97.6487) rotate(-2)"/>
</clipPath>
</defs>
</svg>
